<svg xmlns="http://www.w3.org/2000/svg" viewBox="0 0 601.61 108.71"><defs><style>.a{fill:#fff;}</style></defs><title>bg-gains</title><path class="a" d="M595.57 82.82a6.92 6.92 0 1 0-7.74-6 6.92 6.92 0 0 0 7.74 6zm-1.36-10.56a3.73 3.73 0 1 1-3.21 4.18 3.73 3.73 0 0 1 3.21-4.18zM537.88 67.41a6.92 6.92 0 1 0-7.74-6 6.92 6.92 0 0 0 7.74 6zm-1.36-10.57a3.73 3.73 0 1 1-3.22 4.16 3.74 3.74 0 0 1 3.23-4.15zM480.38 108.65a6.92 6.92 0 1 0-7.75-6 6.92 6.92 0 0 0 7.75 6zm-1.38-10.56a3.73 3.73 0 1 1-3.23 4.18 3.73 3.73 0 0 1 3.23-4.18zM424 61.18a6.92 6.92 0 1 0-7.75-6 6.92 6.92 0 0 0 7.75 6zm-1.36-10.56a3.73 3.73 0 1 1-3.23 4.18 3.73 3.73 0 0 1 3.28-4.18zM361.61 75.48a6.92 6.92 0 1 0-7.75-6 6.92 6.92 0 0 0 7.75 6zm-1.36-10.56a3.73 3.73 0 1 1-3.25 4.18 3.73 3.73 0 0 1 3.25-4.18zM305.77 24.9a6.92 6.92 0 1 0-7.75-6 6.92 6.92 0 0 0 7.75 6zm-1.36-10.57a3.74 3.74 0 1 1-3.23 4.18 3.74 3.74 0 0 1 3.23-4.18zM248.33 13.78a6.92 6.92 0 1 0-7.74-6 6.92 6.92 0 0 0 7.74 6zm-1.33-10.56a3.73 3.73 0 1 1-3.23 4.18 3.74 3.74 0 0 1 3.23-4.18zM201.24 60a6.92 6.92 0 1 0-7.75-6 6.92 6.92 0 0 0 7.75 6zm-4.58-6.39a3.73 3.73 0 1 1 4.18 3.23 3.73 3.73 0 0 1-4.18-3.23"/><path class="a" d="M117.76 49.06a6.92 6.92 0 1 0-7.74-6 6.92 6.92 0 0 0 7.74 6zm-1.36-10.57a3.74 3.74 0 1 1-3.23 4.18 3.74 3.74 0 0 1 3.23-4.18zM7.8 84.89a6.92 6.92 0 1 0-7.74-6 6.92 6.92 0 0 0 7.74 6zm-1.36-10.57a3.73 3.73 0 1 1-3.22 4.18 3.74 3.74 0 0 1 3.22-4.18zM542.321 61.901l.906-2.932 46.27 14.293-.906 2.932zM482.661 97.221l48.75-36.837 1.851 2.45-48.75 36.837zM426.837 58.124l2.011-2.321 48.165 41.73-2.011 2.321zM365.517 65.605l51.696-12.778.737 2.981-51.696 12.778zM307.964 23.368l2.127-2.2 46.706 45.147-2.127 2.2zM251.953 9.097l.54-3.021 47.448 8.487-.54 3.021zM202.915 47.707l38.358-39.907 2.206 2.121-38.358 39.907zM121.941 43.273l.483-3.02 74.38 11.907-.483 3.02zM10.549 73.494l102.106-33.319.952 2.917-102.106 33.319z"/></svg>