<svg xmlns="http://www.w3.org/2000/svg" viewBox="0 0 1106.01 782"><defs><style>.a{fill:#f6f6f6;}.b{fill:#dcdcdc;}</style></defs><title>ipad</title><path class="a" d="M99.18 53.53h907.62v674.05h-907.62z"/><path class="b" d="M1092.56 14.78a47.16 47.16 0 0 0-34.81-14.78h-1011.58a45.56 45.56 0 0 0-32.67 13.64 47.1 47.1 0 0 0-13.5 33.36v689.69a44.6 44.6 0 0 0 13.54 31.92 46.21 46.21 0 0 0 32.63 13.39h1013.67c25.46 0 46.17-22.31 46.17-49.73v-682.6a50.62 50.62 0 0 0-13.45-34.89zm9.93 717.49c0 25.5-19.1 46.22-42.65 46.22h-1013.67c-23.56 0-42.66-19.09-42.66-41.8v-689.69c0-24.38 19.1-43.47 42.66-43.47h1011.58c26.34 0 44.74 21.08 44.74 46.16v682.6zm-44.74-723.52h-1011.58a36.84 36.84 0 0 0-26.41 11 38.38 38.38 0 0 0-10.98 27.25v689.66a35.89 35.89 0 0 0 10.93 25.67 37.48 37.48 0 0 0 26.46 10.87h1013.67c20.61 0 37.38-18.37 37.38-41v-682.56a41.88 41.88 0 0 0-11.06-28.88 38.48 38.48 0 0 0-28.41-12.01zm36 723.49c0 20.65-15.2 37.44-33.87 37.44h-1013.71a34 34 0 0 1-24-9.85 32.41 32.41 0 0 1-9.88-23.17v-689.66a34.89 34.89 0 0 1 10-24.72 33.35 33.35 0 0 1 23.91-10h1011.55a35 35 0 0 1 25.85 10.9 38.39 38.39 0 0 1 10.11 26.48v682.6zm-91.3-683.1h-898.88a4.39 4.39 0 0 0-4.39 4.39v674a4.39 4.39 0 0 0 4.39 4.39h898.84a4.39 4.39 0 0 0 4.39-4.39v-674a4.39 4.39 0 0 0-4.39-4.39zm0 678.43h-898.88v-674h898.84v674zm-948.45-343.16a6.58 6.58 0 1 0 6.58 6.59 6.58 6.58 0 0 0-6.58-6.59zm0 10.53a3.95 3.95 0 1 1 4-4 4 4 0 0 1-4 4zm.16 11.39a3.53 3.53 0 1 0 3.54 3.53 3.53 3.53 0 0 0-3.54-3.53zm1000.94-41.22a26.33 26.33 0 1 0 0 52.66h.63a26.33 26.33 0 0 0-.64-52.65zm16.32 42.28a22.71 22.71 0 0 1-15.78 6.85h-.55a22.83 22.83 0 1 1 16.32-6.84zm-11.12-25.61h-10.4a4.46 4.46 0 0 0-4.46 4.46v10.4a4.46 4.46 0 0 0 4.46 4.45h10.4a4.46 4.46 0 0 0 4.46-4.45v-10.4a4.46 4.46 0 0 0-4.47-4.46zm.95 14.85a1 1 0 0 1-.95.94h-10.4a1 1 0 0 1-.95-.94v-10.4a1 1 0 0 1 .95-.95h10.4a1 1 0 0 1 .95.95v10.4z"/></svg>