<svg xmlns="http://www.w3.org/2000/svg" xmlns:xlink="http://www.w3.org/1999/xlink" viewBox="0 0 1313.22 679"><defs><style>.a{opacity:0.4;}.b,.c,.m,.n,.o,.p,.t{fill:none;stroke-miterlimit:10;}.b,.m,.o{stroke-width:0.96px;stroke-dasharray:3.9 3.9;}.b{stroke:url(#a);}.c{stroke:url(#b);}.d{fill:#436387;}.d,.e,.f,.g,.h,.i,.j,.k,.l,.q,.r,.s,.t,.u{fill-rule:evenodd;}.e{fill:#335f80;}.f{fill:#2d6882;}.g,.l,.v{fill:#fff;}.h{fill:#875994;}.i{fill:url(#c);}.j{fill:url(#d);}.k{fill:url(#e);}.l{opacity:0.34;}.m{stroke:url(#f);}.n{stroke:url(#g);}.o{stroke:url(#h);}.p{stroke:url(#i);}.q,.r{fill:#e23f96;}.q{opacity:0.29;}.s{fill:url(#j);}.t{stroke:#fff;}.u{fill:#104c60;}.w{fill:#015873;}.x{fill:#014b62;}</style><linearGradient id="a" x1="476.72" x2="476.72" y2="208.18" gradientUnits="userSpaceOnUse"><stop offset="0" stop-color="#135972"/><stop offset="1" stop-color="#e6f1f3"/></linearGradient><linearGradient id="b" x1="476.72" y1="226.95" x2="476.72" y2="228.95" xlink:href="#a"/><linearGradient id="c" x1="840" y1="501" x2="1313.22" y2="501" gradientUnits="userSpaceOnUse"><stop offset="0" stop-color="#77578f"/><stop offset="1" stop-color="#995095"/></linearGradient><linearGradient id="d" x1="986.22" y1="584" x2="1313.22" y2="584" gradientUnits="userSpaceOnUse"><stop offset="0" stop-color="#8a5996"/><stop offset="1" stop-color="#a45499"/></linearGradient><linearGradient id="e" x1="492.73" y1="551" x2="492.73" y2="451" gradientUnits="userSpaceOnUse"><stop offset="0" stop-color="#e6f1f3"/><stop offset="1" stop-color="#b8cfd6"/></linearGradient><linearGradient id="f" x1="837.72" y1="0" x2="837.72" y2="208.18" xlink:href="#a"/><linearGradient id="g" x1="837.72" y1="226.95" x2="837.72" y2="228.95" xlink:href="#a"/><linearGradient id="h" x1="658.72" y1="0" x2="658.72" y2="208.18" xlink:href="#a"/><linearGradient id="i" x1="658.72" y1="226.95" x2="658.72" y2="228.95" xlink:href="#a"/><linearGradient id="j" x1="821.47" y1="551" x2="821.47" y2="451" gradientUnits="userSpaceOnUse"><stop offset="0" stop-color="#d03392"/><stop offset="1" stop-color="#a73d91"/></linearGradient></defs><title>total-followers-large</title><g class="a"><line class="b" x1="476.72" x2="476.72" y2="208.18"/><line class="c" x1="476.72" y1="226.95" x2="476.72" y2="228.95"/></g><path class="d" d="M294.22,267l90-50,90,50V451h-180V267Z"/><path class="e" d="M295.22,451H475L327,551H0Z"/><path class="f" d="M0.22,551h327v66H0.22V551Z"/><path class="g" d="M329.23,551h327V679h-327V551Z"/><path class="h" d="M1020,218l-90-50-90,50V451h180V218Z"/><path class="i" d="M1020,451H840L986.22,551h327Z"/><path class="j" d="M986.22,551h327v66h-327V551Z"/><path class="k" d="M476.23,451h180V551h-327Z"/><path class="l" d="M476.23,210l90-50,90,50V434.74h-180V210Z"/><path class="g" d="M476.23,226.21l90-50,90,50V451h-180V226.21Z"/><g class="a"><line class="m" x1="837.72" x2="837.72" y2="208.18"/><line class="n" x1="837.72" y1="226.95" x2="837.72" y2="228.95"/></g><g class="a"><line class="o" x1="658.72" x2="658.72" y2="208.18"/><line class="p" x1="658.72" y1="226.95" x2="658.72" y2="228.95"/></g><path class="q" d="M658.22,125l90-50,90,50V434.74h-180V125Z"/><path class="r" d="M658.22,141l90-50,90,50V451h-180V141Z"/><path class="r" d="M658.22,551h327V679h-327V551Z"/><path class="s" d="M837.95,451H658.22V551h326.5Z"/><path class="g" d="M659.5,20.88A16.5,16.5,0,1,1,643,37.38,16.5,16.5,0,0,1,659.5,20.88Z"/><path class="t" d="M539,16h54a21,21,0,0,1,0,42H539A21,21,0,0,1,539,16Z"/><path class="t" d="M720.22,16h54a21,21,0,0,1,0,42h-54A21,21,0,0,1,720.22,16Z"/><path class="u" d="M611.82,595.87h91a21,21,0,0,1,0,42h-91A21,21,0,0,1,611.82,595.87Z"/><path class="v" d="M633.4,623.23h-1.87v-9.82h-3.36v-1.6h8.59v1.6H633.4v9.82Z"/><path class="v" d="M648.65,617.5a6.25,6.25,0,0,1-1.39,4.34,5.86,5.86,0,0,1-7.92,0,6.28,6.28,0,0,1-1.39-4.36,6.19,6.19,0,0,1,1.39-4.34,5.14,5.14,0,0,1,4-1.52,5,5,0,0,1,3.94,1.54A6.24,6.24,0,0,1,648.65,617.5Zm-8.72,0a5.12,5.12,0,0,0,.85,3.2,3.47,3.47,0,0,0,5,0,6.49,6.49,0,0,0,0-6.4,3,3,0,0,0-2.5-1.09,3,3,0,0,0-2.54,1.09A5.07,5.07,0,0,0,639.93,617.5Z"/><path class="v" d="M655,623.23h-1.87v-9.82h-3.36v-1.6h8.59v1.6H655v9.82Z"/><path class="v" d="M667.24,623.23l-1.14-3.17h-4.37l-1.12,3.17h-2l4.27-11.47h2l4.27,11.47h-2Zm-1.63-4.78-1.07-3.11q-0.12-.31-0.32-1t-0.29-1a17.59,17.59,0,0,1-.62,2.1l-1,3h3.33Z"/><path class="v" d="M670.73,623.23V611.81h1.87v9.82h4.84v1.6h-6.7Z"/><path class="v" d="M686,620.13a2.87,2.87,0,0,1-1.1,2.39,4.79,4.79,0,0,1-3,.87,7.25,7.25,0,0,1-3.17-.6V621a8.59,8.59,0,0,0,1.66.58,7,7,0,0,0,1.64.21,2.6,2.6,0,0,0,1.64-.42,1.38,1.38,0,0,0,.53-1.13,1.42,1.42,0,0,0-.48-1.09,7.29,7.29,0,0,0-2-1.05,5.28,5.28,0,0,1-2.2-1.45,3.06,3.06,0,0,1-.64-2,2.74,2.74,0,0,1,1-2.25,4.21,4.21,0,0,1,2.73-.82,8,8,0,0,1,3.27.72l-0.59,1.52a7.14,7.14,0,0,0-2.72-.64,2.09,2.09,0,0,0-1.37.39,1.29,1.29,0,0,0-.47,1,1.47,1.47,0,0,0,.19.76,1.92,1.92,0,0,0,.62.6,10.44,10.44,0,0,0,1.55.74,8.46,8.46,0,0,1,1.84,1,2.88,2.88,0,0,1,.86,1A3.07,3.07,0,0,1,686,620.13Z"/><path class="w" d="M436.08,627.17h-3.44V613.34q0-2.48.12-3.93-0.34.35-.83,0.78t-3.29,2.7l-1.73-2.18,6.3-5h2.87v21.42Z"/><path class="w" d="M447.81,624a49.23,49.23,0,0,1-2.58,7H442.7a72.09,72.09,0,0,0,1.51-7.35h3.38Z"/><path class="w" d="M465.59,614.89q0,6.33-2.55,9.45t-7.68,3.12a11.72,11.72,0,0,1-2.8-.23v-2.89a9.65,9.65,0,0,0,2.62.37,6.7,6.7,0,0,0,5.2-1.87q1.71-1.87,1.88-5.89h-0.18a5.19,5.19,0,0,1-2.09,1.9,6.56,6.56,0,0,1-2.86.59,5.76,5.76,0,0,1-4.47-1.77A6.92,6.92,0,0,1,451,612.8a7.44,7.44,0,0,1,1.88-5.34,6.74,6.74,0,0,1,5.13-2,6.84,6.84,0,0,1,6.61,4.34A12.66,12.66,0,0,1,465.59,614.89Zm-7.47-6.56a3.34,3.34,0,0,0-2.74,1.16,5,5,0,0,0-1,3.27,4.31,4.31,0,0,0,.89,2.88,3.32,3.32,0,0,0,2.69,1,4.29,4.29,0,0,0,2.93-1,3.15,3.15,0,0,0,1.19-2.43,5.92,5.92,0,0,0-.51-2.44A4.34,4.34,0,0,0,460.2,609,3.45,3.45,0,0,0,458.12,608.33Z"/><path class="w" d="M470.66,627.17l8.47-18.35H468v-3H482.8v2.4l-8.42,19h-3.72Z"/><path class="w" d="M499.06,610.67a5,5,0,0,1-1.19,3.39,6,6,0,0,1-3.34,1.82V616a6.47,6.47,0,0,1,3.87,1.6,4.59,4.59,0,0,1,1.29,3.41,5.66,5.66,0,0,1-2.18,4.77,10,10,0,0,1-6.21,1.68,14,14,0,0,1-6-1.16v-3.06a13.72,13.72,0,0,0,2.89,1,12.53,12.53,0,0,0,2.93.37,6.18,6.18,0,0,0,3.72-.92,3.34,3.34,0,0,0,1.23-2.86,2.72,2.72,0,0,0-1.36-2.52,8.7,8.7,0,0,0-4.28-.81h-1.86v-2.8h1.89q5.13,0,5.13-3.54a2.61,2.61,0,0,0-.89-2.12,4,4,0,0,0-2.64-.75,8,8,0,0,0-2.34.34A11.14,11.14,0,0,0,487,610l-1.68-2.4a11.23,11.23,0,0,1,6.84-2.17,8.14,8.14,0,0,1,5.05,1.39A4.57,4.57,0,0,1,499.06,610.67Z"/><path class="w" d="M507.19,624a49.23,49.23,0,0,1-2.58,7h-2.53a72.09,72.09,0,0,0,1.51-7.35H507Z"/><path class="w" d="M524.2,610.67a5,5,0,0,1-1.19,3.39,6,6,0,0,1-3.34,1.82V616a6.47,6.47,0,0,1,3.87,1.6,4.59,4.59,0,0,1,1.29,3.41,5.66,5.66,0,0,1-2.18,4.77,10,10,0,0,1-6.21,1.68,14,14,0,0,1-6-1.16v-3.06a13.72,13.72,0,0,0,2.89,1,12.53,12.53,0,0,0,2.93.37,6.18,6.18,0,0,0,3.72-.92,3.34,3.34,0,0,0,1.23-2.86,2.72,2.72,0,0,0-1.36-2.52,8.7,8.7,0,0,0-4.28-.81H513.7v-2.8h1.89q5.13,0,5.13-3.54a2.61,2.61,0,0,0-.89-2.12,4,4,0,0,0-2.64-.75,8,8,0,0,0-2.34.34,11.14,11.14,0,0,0-2.67,1.34l-1.68-2.4a11.23,11.23,0,0,1,6.84-2.17,8.14,8.14,0,0,1,5.05,1.39A4.57,4.57,0,0,1,524.2,610.67Z"/><path class="w" d="M542.89,622.5H540v4.67h-3.35V622.5h-9.79v-2.65l9.79-14.15H540v13.95h2.89v2.86Zm-6.24-2.86v-5.38q0-2.87.15-4.7h-0.12a16.62,16.62,0,0,1-1.29,2.34l-5.32,7.73h6.58Z"/><path class="w" d="M559.25,627.17H544.74v-2.61l5.52-5.55a47.26,47.26,0,0,0,3.25-3.55,8.51,8.51,0,0,0,1.16-2,5.31,5.31,0,0,0,.37-2,3,3,0,0,0-.87-2.29,3.34,3.34,0,0,0-2.41-.83,6.42,6.42,0,0,0-2.38.45,11.12,11.12,0,0,0-2.66,1.64l-1.86-2.27a12,12,0,0,1,3.47-2.14,10.16,10.16,0,0,1,3.59-.63,7.07,7.07,0,0,1,4.79,1.56,5.27,5.27,0,0,1,1.8,4.2A7.38,7.38,0,0,1,558,614a11.18,11.18,0,0,1-1.6,2.69,36.26,36.26,0,0,1-3.58,3.74l-3.72,3.6v0.15h10.17v3Z"/><path class="x" d="M654,42.83l-3.69-9.72h2.18l2,5.65a11.2,11.2,0,0,1,.62,2.3h0.07a15.46,15.46,0,0,1,.62-2.3l2-5.65h2.2l-3.71,9.72H654Z"/><path class="x" d="M667.94,40.06a2.54,2.54,0,0,1-1,2.18,5,5,0,0,1-3,.76,7,7,0,0,1-3.12-.59V40.63a7.66,7.66,0,0,0,3.19.79q1.91,0,1.91-1.15a0.91,0.91,0,0,0-.21-0.62,2.5,2.5,0,0,0-.69-0.51,12,12,0,0,0-1.34-.6,6.21,6.21,0,0,1-2.27-1.3,2.4,2.4,0,0,1-.59-1.69,2.22,2.22,0,0,1,1-1.94,4.78,4.78,0,0,1,2.74-.69,7.75,7.75,0,0,1,3.24.69l-0.67,1.56a7.21,7.21,0,0,0-2.65-.65q-1.63,0-1.63.93a0.94,0.94,0,0,0,.43.77,9.38,9.38,0,0,0,1.86.87,8.5,8.5,0,0,1,1.75.85,2.55,2.55,0,0,1,.81.89A2.58,2.58,0,0,1,667.94,40.06Z"/><path class="v" d="M767.46,627.17H752.94v-2.61l5.52-5.55a47.26,47.26,0,0,0,3.25-3.55,8.51,8.51,0,0,0,1.16-2,5.31,5.31,0,0,0,.37-2,3,3,0,0,0-.87-2.29,3.34,3.34,0,0,0-2.41-.83,6.42,6.42,0,0,0-2.38.45,11.12,11.12,0,0,0-2.66,1.64l-1.86-2.27a12,12,0,0,1,3.47-2.14,10.16,10.16,0,0,1,3.59-.63,7.07,7.07,0,0,1,4.79,1.56,5.27,5.27,0,0,1,1.8,4.2,7.38,7.38,0,0,1-.52,2.75,11.18,11.18,0,0,1-1.6,2.69,36.26,36.26,0,0,1-3.58,3.74l-3.72,3.6v0.15h10.17v3Z"/><path class="v" d="M774.78,624a49.23,49.23,0,0,1-2.58,7h-2.53a72.09,72.09,0,0,0,1.51-7.35h3.38Z"/><path class="v" d="M792.59,627.17H778.08v-2.61L783.6,619a47.26,47.26,0,0,0,3.25-3.55,8.51,8.51,0,0,0,1.16-2,5.31,5.31,0,0,0,.37-2,3,3,0,0,0-.87-2.29,3.34,3.34,0,0,0-2.41-.83,6.42,6.42,0,0,0-2.38.45,11.12,11.12,0,0,0-2.66,1.64l-1.86-2.27a12,12,0,0,1,3.47-2.14,10.16,10.16,0,0,1,3.59-.63A7.07,7.07,0,0,1,790,607a5.27,5.27,0,0,1,1.8,4.2,7.38,7.38,0,0,1-.52,2.75,11.18,11.18,0,0,1-1.6,2.69,36.26,36.26,0,0,1-3.58,3.74l-3.72,3.6v0.15h10.17v3Z"/><path class="v" d="M795.26,618q0-12.57,10.24-12.57a12.7,12.7,0,0,1,2.72.25v2.87a9.3,9.3,0,0,0-2.58-.32,6.75,6.75,0,0,0-5.17,1.85Q798.75,612,798.6,616h0.18a4.71,4.71,0,0,1,1.93-1.84,6.23,6.23,0,0,1,2.93-.65,5.83,5.83,0,0,1,4.54,1.79,6.93,6.93,0,0,1,1.63,4.85,7.36,7.36,0,0,1-1.88,5.33,6.8,6.8,0,0,1-5.13,2,7.17,7.17,0,0,1-4-1.11,7.05,7.05,0,0,1-2.61-3.22A12.77,12.77,0,0,1,795.26,618Zm7.47,6.58a3.37,3.37,0,0,0,2.73-1.14,5,5,0,0,0,1-3.27,4.33,4.33,0,0,0-.9-2.9,3.36,3.36,0,0,0-2.7-1.05,4.48,4.48,0,0,0-2.05.48,3.78,3.78,0,0,0-1.48,1.3,3.05,3.05,0,0,0-.54,1.69,5.42,5.42,0,0,0,1.12,3.48A3.49,3.49,0,0,0,802.73,624.62Z"/><path class="v" d="M826,610.67a5,5,0,0,1-1.19,3.39,6,6,0,0,1-3.34,1.82V616a6.47,6.47,0,0,1,3.87,1.6,4.59,4.59,0,0,1,1.29,3.41,5.66,5.66,0,0,1-2.18,4.77,10,10,0,0,1-6.21,1.68,14,14,0,0,1-6-1.16v-3.06a13.72,13.72,0,0,0,2.89,1,12.53,12.53,0,0,0,2.93.37,6.18,6.18,0,0,0,3.72-.92,3.34,3.34,0,0,0,1.23-2.86,2.72,2.72,0,0,0-1.36-2.52,8.7,8.7,0,0,0-4.28-.81h-1.86v-2.8h1.89q5.13,0,5.13-3.54a2.61,2.61,0,0,0-.89-2.12,4,4,0,0,0-2.64-.75,8,8,0,0,0-2.34.34A11.14,11.14,0,0,0,814,610l-1.68-2.4a11.23,11.23,0,0,1,6.84-2.17,8.14,8.14,0,0,1,5.05,1.39A4.57,4.57,0,0,1,826,610.67Z"/><path class="v" d="M834.17,624a49.23,49.23,0,0,1-2.58,7h-2.53a72.09,72.09,0,0,0,1.51-7.35h3.38Z"/><path class="v" d="M844.7,605.47a7.58,7.58,0,0,1,4.82,1.4,4.52,4.52,0,0,1,1.77,3.74q0,3.3-4,5.24a10.19,10.19,0,0,1,3.58,2.65,5,5,0,0,1,1.06,3.11,5.22,5.22,0,0,1-1.95,4.25,8.07,8.07,0,0,1-5.27,1.6,8.62,8.62,0,0,1-5.41-1.49,5.05,5.05,0,0,1-1.92-4.23,5.46,5.46,0,0,1,1-3.22,8.41,8.41,0,0,1,3.29-2.54,8.27,8.27,0,0,1-2.8-2.48,5.32,5.32,0,0,1-.83-2.93,4.42,4.42,0,0,1,1.83-3.71A7.72,7.72,0,0,1,844.7,605.47Zm-4,16.14A2.84,2.84,0,0,0,841.8,624a4.56,4.56,0,0,0,2.9.84,4.47,4.47,0,0,0,2.94-.87,2.92,2.92,0,0,0,1-2.37,3,3,0,0,0-1-2.17,9.12,9.12,0,0,0-2.93-1.82l-0.42-.19a7.55,7.55,0,0,0-2.78,1.87A3.55,3.55,0,0,0,840.73,621.62Zm3.94-13.49a3.63,3.63,0,0,0-2.36.72,2.4,2.4,0,0,0-.89,2,2.84,2.84,0,0,0,.32,1.36,3.54,3.54,0,0,0,.94,1.09,11.19,11.19,0,0,0,2.08,1.18,6.91,6.91,0,0,0,2.48-1.63,3,3,0,0,0,.73-2,2.39,2.39,0,0,0-.9-2A3.71,3.71,0,0,0,844.67,608.13Z"/><path class="v" d="M869.07,614.89q0,6.33-2.55,9.45t-7.68,3.12a11.72,11.72,0,0,1-2.8-.23v-2.89a9.65,9.65,0,0,0,2.62.37,6.7,6.7,0,0,0,5.2-1.87q1.71-1.87,1.88-5.89h-0.18a5.19,5.19,0,0,1-2.09,1.9,6.56,6.56,0,0,1-2.86.59,5.76,5.76,0,0,1-4.47-1.77,6.92,6.92,0,0,1-1.63-4.86,7.44,7.44,0,0,1,1.88-5.34,6.74,6.74,0,0,1,5.13-2,6.84,6.84,0,0,1,6.61,4.34A12.66,12.66,0,0,1,869.07,614.89Zm-7.47-6.56a3.34,3.34,0,0,0-2.74,1.16,5,5,0,0,0-1,3.27,4.31,4.31,0,0,0,.89,2.88,3.32,3.32,0,0,0,2.69,1,4.29,4.29,0,0,0,2.93-1,3.15,3.15,0,0,0,1.19-2.43,5.92,5.92,0,0,0-.51-2.44,4.34,4.34,0,0,0-1.41-1.79A3.45,3.45,0,0,0,861.6,608.33Z"/><path class="v" d="M879,613.79a7.34,7.34,0,0,1,5.13,1.71,6,6,0,0,1,1.89,4.67,6.83,6.83,0,0,1-2.15,5.35,8.83,8.83,0,0,1-6.1,1.93,11.53,11.53,0,0,1-5.64-1.16v-3.12a10.34,10.34,0,0,0,2.72,1,12.38,12.38,0,0,0,2.86.37,5.31,5.31,0,0,0,3.54-1,3.79,3.79,0,0,0,1.22-3q0-3.84-4.89-3.84a12.83,12.83,0,0,0-1.7.14q-1,.14-1.77.31l-1.54-.91,0.82-10.46H884.5v3.06h-8.1l-0.48,5.3,1.25-.21A11.79,11.79,0,0,1,879,613.79Z"/><path class="v" d="M746.58,256.54v13.86a8.21,8.21,0,0,1-1,4.15,6.78,6.78,0,0,1-2.94,2.74,10.24,10.24,0,0,1-4.61,1,8.62,8.62,0,0,1-6.2-2.11,7.63,7.63,0,0,1-2.21-5.8v-13.8h3.52v13.55a5.41,5.41,0,0,0,1.23,3.91,5.07,5.07,0,0,0,3.78,1.26q5,0,5-5.2V256.54h3.5Z"/><path class="v" d="M766.24,263a6.24,6.24,0,0,1-2.2,5.14,9.68,9.68,0,0,1-6.25,1.79h-2.23v8h-3.5V256.54h6.17q4,0,6,1.64A5.89,5.89,0,0,1,766.24,263Zm-10.68,4h1.86a6.67,6.67,0,0,0,4-.94,3.41,3.41,0,0,0,1.26-2.93,3.32,3.32,0,0,0-1.13-2.75,5.57,5.57,0,0,0-3.52-.91h-2.43V267Z"/><path class="v" d="M697.23,323.19h-5.51V301.06q0-4,.19-6.28-0.54.56-1.32,1.24t-5.26,4.31l-2.77-3.49,10.08-7.92h4.59v34.27Z"/><path class="v" d="M732.9,315.71h-4.62v7.48h-5.37v-7.48H707.26v-4.24l15.66-22.64h5.37v22.31h4.62v4.57Zm-10-4.57v-8.6q0-4.59.23-7.52H723a26.59,26.59,0,0,1-2.06,3.75l-8.51,12.38h10.52Z"/><path class="v" d="M736.86,320.26a3.61,3.61,0,0,1,.89-2.62,3.44,3.44,0,0,1,2.58-.91,3.4,3.4,0,0,1,2.6.95,3.63,3.63,0,0,1,.89,2.59,3.72,3.72,0,0,1-.9,2.64,3.94,3.94,0,0,1-5.17,0A3.75,3.75,0,0,1,736.86,320.26Z"/><path class="v" d="M752.94,323.19l13.55-29.37H748.68V289h23.7v3.84l-13.48,30.38h-6Z"/><path class="v" d="M791.43,299.14q0,5.39-1.93,8.1a6.56,6.56,0,0,1-5.71,2.71,6.34,6.34,0,0,1-5.52-2.8q-2-2.8-2-8,0-10.71,7.48-10.71a6.53,6.53,0,0,1,5.66,2.78Q791.43,294,791.43,299.14Zm-10.55,0a15,15,0,0,0,.68,5.2,2.32,2.32,0,0,0,2.23,1.71q3.09,0,3.09-6.91t-3.09-6.91a2.32,2.32,0,0,0-2.23,1.71A15,15,0,0,0,780.88,299.19Zm25.9-10.27-19,34.27h-4.55l19-34.27h4.55Zm7,24q0,5.39-1.95,8.09a6.56,6.56,0,0,1-5.67,2.7,6.39,6.39,0,0,1-5.53-2.78q-2-2.78-2-8,0-10.71,7.5-10.71a6.53,6.53,0,0,1,5.61,2.77Q813.74,307.7,813.74,312.88Zm-10.55,0a14.92,14.92,0,0,0,.69,5.23,2.34,2.34,0,0,0,2.24,1.73q3.07,0,3.07-7T806.12,306a2.34,2.34,0,0,0-2.24,1.69A14.51,14.51,0,0,0,803.19,312.88Z"/><path class="v" d="M552.57,44.6h-9.38V43.7l4-4.16a29.34,29.34,0,0,0,2.36-2.67,7.53,7.53,0,0,0,1-1.76,5,5,0,0,0,.32-1.76,2.88,2.88,0,0,0-.88-2.18,3.18,3.18,0,0,0-2.29-.84,5.69,5.69,0,0,0-3.59,1.36L543.53,31a6.31,6.31,0,0,1,4.16-1.58,4.35,4.35,0,0,1,3.08,1,3.75,3.75,0,0,1,1.12,2.88,6,6,0,0,1-.75,2.88,16.83,16.83,0,0,1-2.75,3.43l-3.84,3.95v0h8v1Z"/><path class="v" d="M564.83,37.06a11.14,11.14,0,0,1-1.21,5.84,4,4,0,0,1-3.65,1.9,4,4,0,0,1-3.57-2,11.07,11.07,0,0,1-1.22-5.79,11.16,11.16,0,0,1,1.18-5.8,4,4,0,0,1,3.6-1.89,4,4,0,0,1,3.61,2A10.79,10.79,0,0,1,564.83,37.06Zm-8.53,0a11.15,11.15,0,0,0,.91,5.15,3.16,3.16,0,0,0,5.59-.06,11.49,11.49,0,0,0,.89-5.1,11.34,11.34,0,0,0-.89-5A3,3,0,0,0,560,30.3,2.93,2.93,0,0,0,557.17,32,11.51,11.51,0,0,0,556.3,37.06Z"/><path class="v" d="M573,44.6h-1V33.68q0-1.49.12-3.09l-0.32.3-3.17,2.49L568,32.66l4.07-3H573v15Z"/><path class="v" d="M589.68,40.78H587.1V44.6h-1V40.78h-7.71V40.09l7.43-10.56h1.24V39.9h2.58v0.88Zm-3.55-.88V35.61q0-3.1.14-5.2H586.2q-0.21.38-1.26,1.93l-5.29,7.56h6.49Z"/><path class="v" d="M733,44.6h-9.38V43.7l4-4.16A29.34,29.34,0,0,0,730,36.87a7.53,7.53,0,0,0,1-1.76,5,5,0,0,0,.32-1.76,2.88,2.88,0,0,0-.88-2.18,3.18,3.18,0,0,0-2.29-.84,5.69,5.69,0,0,0-3.59,1.36L724,31a6.31,6.31,0,0,1,4.16-1.58,4.35,4.35,0,0,1,3.08,1,3.75,3.75,0,0,1,1.12,2.88,6,6,0,0,1-.75,2.88,16.83,16.83,0,0,1-2.75,3.43L725,43.58v0h8v1Z"/><path class="v" d="M745.28,37.06a11.14,11.14,0,0,1-1.21,5.84,4,4,0,0,1-3.65,1.9,4,4,0,0,1-3.57-2,11.07,11.07,0,0,1-1.22-5.79,11.16,11.16,0,0,1,1.18-5.8,4,4,0,0,1,3.6-1.89,4,4,0,0,1,3.61,2A10.79,10.79,0,0,1,745.28,37.06Zm-8.53,0a11.15,11.15,0,0,0,.91,5.15,3.16,3.16,0,0,0,5.59-.06,11.49,11.49,0,0,0,.89-5.1,11.34,11.34,0,0,0-.89-5,3,3,0,0,0-2.83-1.72A2.93,2.93,0,0,0,737.62,32,11.51,11.51,0,0,0,736.75,37.06Z"/><path class="v" d="M753.44,44.6h-1V33.68q0-1.49.12-3.09l-0.32.3-3.17,2.49-0.58-.73,4.07-3h0.88v15Z"/><path class="v" d="M763.94,35.59a5.7,5.7,0,0,1,3.78,1.16,3.94,3.94,0,0,1,1.38,3.19,4.56,4.56,0,0,1-1.44,3.59,5.73,5.73,0,0,1-4,1.28,9.87,9.87,0,0,1-2.12-.22A5.5,5.5,0,0,1,759.9,44V42.9a9.78,9.78,0,0,0,2,.78,7.35,7.35,0,0,0,1.83.22,4.62,4.62,0,0,0,3.16-1A3.55,3.55,0,0,0,768.05,40a3.22,3.22,0,0,0-1.16-2.62,4.81,4.81,0,0,0-3.15-1,10.53,10.53,0,0,0-2.79.4l-0.62-.4,0.59-6.86h7.22v1H761.9l-0.46,5.29A14.62,14.62,0,0,1,763.94,35.59Z"/></svg>