<svg xmlns="http://www.w3.org/2000/svg" viewBox="0 0 601.61 108.71"><defs><style>.a{fill:#fff;}</style></defs><title>bg-gains</title><path class="a" d="M595.57,82.82a6.92,6.92,0,1,0-7.74-6A6.92,6.92,0,0,0,595.57,82.82Zm-1.36-10.56A3.73,3.73,0,1,1,591,76.44,3.73,3.73,0,0,1,594.21,72.26Z" transform="translate(0 0)"/><path class="a" d="M537.88,67.41a6.92,6.92,0,1,0-7.74-6A6.92,6.92,0,0,0,537.88,67.41Zm-1.36-10.57A3.73,3.73,0,1,1,533.3,61,3.74,3.74,0,0,1,536.53,56.85Z" transform="translate(0 0)"/><path class="a" d="M480.38,108.65a6.92,6.92,0,1,0-7.75-6A6.92,6.92,0,0,0,480.38,108.65ZM479,98.09a3.73,3.73,0,1,1-3.23,4.18A3.73,3.73,0,0,1,479,98.09Z" transform="translate(0 0)"/><path class="a" d="M424,61.18a6.92,6.92,0,1,0-7.75-6A6.92,6.92,0,0,0,424,61.18Zm-1.36-10.56a3.73,3.73,0,1,1-3.23,4.18A3.73,3.73,0,0,1,422.69,50.62Z" transform="translate(0 0)"/><path class="a" d="M361.61,75.48a6.92,6.92,0,1,0-7.75-6A6.92,6.92,0,0,0,361.61,75.48Zm-1.36-10.56A3.73,3.73,0,1,1,357,69.1,3.73,3.73,0,0,1,360.25,64.92Z" transform="translate(0 0)"/><path class="a" d="M305.77,24.9a6.92,6.92,0,1,0-7.75-6A6.92,6.92,0,0,0,305.77,24.9Zm-1.36-10.57a3.74,3.74,0,1,1-3.23,4.18A3.74,3.74,0,0,1,304.41,14.33Z" transform="translate(0 0)"/><path class="a" d="M248.33,13.78a6.92,6.92,0,1,0-7.74-6A6.92,6.92,0,0,0,248.33,13.78ZM247,3.22a3.73,3.73,0,1,1-3.23,4.18A3.74,3.74,0,0,1,247,3.22Z" transform="translate(0 0)"/><path class="a" d="M201.24,60a6.92,6.92,0,1,0-7.75-6A6.92,6.92,0,0,0,201.24,60Zm-4.58-6.39a3.73,3.73,0,1,1,4.18,3.23,3.73,3.73,0,0,1-4.18-3.23" transform="translate(0 0)"/><path class="a" d="M117.76,49.06a6.92,6.92,0,1,0-7.74-6A6.92,6.92,0,0,0,117.76,49.06ZM116.4,38.49a3.74,3.74,0,1,1-3.23,4.18A3.74,3.74,0,0,1,116.4,38.49Z" transform="translate(0 0)"/><path class="a" d="M7.8,84.89a6.92,6.92,0,1,0-7.74-6A6.92,6.92,0,0,0,7.8,84.89ZM6.44,74.32A3.73,3.73,0,1,1,3.22,78.5,3.74,3.74,0,0,1,6.44,74.32Z" transform="translate(0 0)"/><rect class="a" x="564.55" y="43.14" width="3.07" height="48.45" transform="translate(334.58 588.32) rotate(-72.83)"/><rect class="a" x="477.28" y="78.46" width="61.09" height="3.07" transform="translate(54.48 322.41) rotate(-37.09)"/><rect class="a" x="450.22" y="45.97" width="3.07" height="63.71" transform="translate(97.19 368.38) rotate(-49.11)"/><rect class="a" x="365.03" y="59.22" width="53.24" height="3.07" transform="translate(-3.14 95.71) rotate(-13.88)"/><rect class="a" x="330.73" y="12.22" width="3.06" height="64.96" transform="translate(69.32 252.67) rotate(-46)"/><rect class="a" x="274.52" y="-12.36" width="3.07" height="48.22" transform="translate(215.8 281.4) rotate(-79.84)"/><rect class="a" x="195.45" y="27.21" width="55.35" height="3.06" transform="translate(47.85 169.77) rotate(-46.16)"/><rect class="a" x="157.92" y="10" width="3.06" height="75.36" transform="translate(87.12 197.56) rotate(-80.89)"/><rect class="a" x="8.42" y="56.71" width="107.48" height="3.07" transform="matrix(0.95, -0.31, 0.31, 0.95, -15.03, 22.23)"/></svg>