<svg xmlns="http://www.w3.org/2000/svg" viewBox="0 0 473.16 460"><defs><style>.a,.b,.c{fill:#fff;}.a{opacity:0.18;}.b{opacity:0.44;}.d{fill:none;stroke:#fff;stroke-miterlimit:10;stroke-width:3px;}.e{fill:#7b5ca3;}</style></defs><title>gains</title><path class="a" d="M310 230.77a80 80 0 1 1-80-80.77h.85v-30h-.85a110 110 0 1 0 110 110.77h-30zM350 230.77a120 120 0 1 1-120-120.77h.85v-30h-.85a150 150 0 1 0 150 150.77h-30zM390 230.77a160 160 0 1 1-160-160.77h.85v-30h-.85c-104.93 0-190 85.07-190 190s85.07 190 190 190c104.68 0 189.57-84.65 190-189.23h-30zM430 230.77a200 200 0 0 1-341.42 140.65 200 200 0 0 1 141.42-341.42h.85v-30h-.85c-127 0-230 103-230 230s103 230 230 230c126.77 0 229.57-102.56 230-229.23h-30zM269.81 230.77a40 40 0 1 1-40-40.77h.85v-30h-.85a70 70 0 1 0 70 70.77h-30z"/><path class="b" d="M337 230.77a107 107 0 1 1-107-107.77h.85v-3h-.85a110 110 0 1 0 110 110.77h-3zM377 230.77a147 147 0 1 1-147-147.77h.85v-3h-.85a150 150 0 1 0 150 150.77h-3zM417 230.77a187 187 0 0 1-359.3 72 186.94 186.94 0 0 1 172.3-259.77h.85v-3h-.85c-104.93 0-190 85.07-190 190s85.07 190 190 190c104.68 0 189.57-84.65 190-189.23h-3zM297 230.77a67 67 0 1 1-67-67.77h.85v-3h-.85a70 70 0 1 0 70 70.77h-3z"/><path class="c" d="M230 163h.85v-3h-.85a70 70 0 0 0-38.74 128.3l1.85-2.41a67 67 0 0 1 36.89-122.89zM230 123h.85v-3h-.85a110 110 0 0 0-31.8 215.33l.56-2.93a107 107 0 0 1 31.24-209.4zM230 83h.85v-3h-.85a150 150 0 0 0-6.86 299.84v-3a147 147 0 0 1 6.86-293.84zM362.23 362.23a187 187 0 1 1-132.23-319.23h.85v-3h-.85c-104.93 0-190 85.07-190 190s85.07 190 190 190a189.82 189.82 0 0 0 159-86l-2.48-1.65a187.48 187.48 0 0 1-24.29 29.88z"/><path class="d" d="M230 161.46h81.55M230 121.52h81.55M230 81.52h81.55M230 41.52h81.55M230 1.53h81.55"/><path class="c" d="M457 230.77a227.06 227.06 0 0 1-436.16 87.59 226.93 226.93 0 0 1 209.16-315.36h.85v-3h-.85c-127 0-230 103-230 230s103 230 230 230c126.77 0 229.57-102.56 230-229.23h-3z"/><circle class="c" cx="192.16" cy="285.96" r="15"/><path class="e" d="M186.93 290h-1.26v-6.51l-.3.29-1.21 1-.63-.8 2.31-1.82h1.05v7.84zM193.21 290h-1.21v-6.51l-.3.29-1.21 1-.63-.8 2.31-1.82h1.05v7.84zM196.68 290l3.11-6.73h-4.09v-1.11h5.43v.84l-3.13 7h-1.37z"/><circle class="c" cx="198.16" cy="333.96" r="15"/><path class="e" d="M193 338.32h-1.26v-6.51l-.3.29-1.21 1-.63-.8 2.31-1.82h1.09v7.86zM200.65 332.27a1.82 1.82 0 0 1-.43 1.24 2.2 2.2 0 0 1-1.23.67 2.37 2.37 0 0 1 1.42.59 1.69 1.69 0 0 1 .47 1.25 2.07 2.07 0 0 1-.8 1.75 3.68 3.68 0 0 1-2.28.62 5.13 5.13 0 0 1-2.2-.42v-1.12a5 5 0 0 0 1.06.38 4.59 4.59 0 0 0 1.08.13 2.27 2.27 0 0 0 1.37-.34 1.23 1.23 0 0 0 .45-1 1 1 0 0 0-.5-.92 3.19 3.19 0 0 0-1.57-.3h-.68v-1h.69q1.88 0 1.88-1.3a1 1 0 0 0-.33-.78 1.47 1.47 0 0 0-1-.27 2.93 2.93 0 0 0-.86.13 4 4 0 0 0-1 .49l-.62-.88a4.12 4.12 0 0 1 2.51-.79 3 3 0 0 1 1.85.51 1.67 1.67 0 0 1 .72 1.36zM205.61 338.32h-1.26v-6.51l-.3.29-1.21 1-.63-.8 2.31-1.82h1.05v7.86z"/><circle class="c" cx="224.16" cy="377.96" r="15"/><path class="e" d="M218.93 382.32h-1.26v-6.51l-.3.29-1.21 1-.63-.8 2.31-1.82h1.05v7.86zM227.11 380.61h-1.06v1.71h-1.23v-1.71h-3.59v-1l3.59-5.19h1.23v5.12h1.06v1zm-2.29-1v-2q0-1.05.05-1.73a6.07 6.07 0 0 1-.47.86l-2 2.84h2.41zM232.82 376.27a1.82 1.82 0 0 1-.43 1.24 2.2 2.2 0 0 1-1.23.67 2.37 2.37 0 0 1 1.42.59 1.69 1.69 0 0 1 .47 1.25 2.07 2.07 0 0 1-.8 1.75 3.68 3.68 0 0 1-2.28.62 5.13 5.13 0 0 1-2.2-.42v-1.12a5 5 0 0 0 1.06.38 4.59 4.59 0 0 0 1.08.13 2.27 2.27 0 0 0 1.37-.34 1.23 1.23 0 0 0 .45-1 1 1 0 0 0-.5-.92 3.19 3.19 0 0 0-1.57-.3h-.66v-1h.69q1.88 0 1.88-1.3a1 1 0 0 0-.33-.78 1.47 1.47 0 0 0-1-.27 2.93 2.93 0 0 0-.86.13 4 4 0 0 0-1 .49l-.62-.88a4.12 4.12 0 0 1 2.51-.79 3 3 0 0 1 1.85.51 1.67 1.67 0 0 1 .7 1.36z"/><circle class="c" cx="388.16" cy="332.96" r="15"/><path class="e" d="M382.93 337.32h-1.26v-6.51l-.3.29-1.21 1-.63-.8 2.31-1.82h1.05v7.86zM390.82 332.82a5.4 5.4 0 0 1-.94 3.47 3.42 3.42 0 0 1-2.82 1.14 4.28 4.28 0 0 1-1-.09v-1.06a3.52 3.52 0 0 0 1 .13 2.46 2.46 0 0 0 1.91-.69 3.34 3.34 0 0 0 .69-2.16h-.06a1.91 1.91 0 0 1-.77.7 2.4 2.4 0 0 1-1 .21 2.11 2.11 0 0 1-1.64-.65 2.54 2.54 0 0 1-.6-1.78 2.73 2.73 0 0 1 .69-2 2.47 2.47 0 0 1 1.88-.73 2.51 2.51 0 0 1 2.42 1.59 4.65 4.65 0 0 1 .24 1.92zm-2.74-2.41a1.23 1.23 0 0 0-1 .43 1.85 1.85 0 0 0-.35 1.2 1.59 1.59 0 0 0 .32 1.06 1.22 1.22 0 0 0 1 .38 1.57 1.57 0 0 0 1.08-.38 1.15 1.15 0 0 0 .44-.89 2.18 2.18 0 0 0-.19-.89 1.6 1.6 0 0 0-.52-.66 1.26 1.26 0 0 0-.78-.25zM395.5 337.32h-1.26v-6.51l-.3.29-1.21 1-.63-.8 2.31-1.82h1.05v7.86z"/><circle class="c" cx="458.16" cy="229.96" r="15"/><path class="e" d="M454.55 234.32h-5.33v-1l2-2a17.08 17.08 0 0 0 1.19-1.3 3.08 3.08 0 0 0 .43-.72 1.94 1.94 0 0 0 .13-.73 1.11 1.11 0 0 0-.32-.84 1.23 1.23 0 0 0-.88-.31 2.36 2.36 0 0 0-.87.17 4.09 4.09 0 0 0-1 .6l-.68-.83a4.4 4.4 0 0 1 1.27-.78 3.72 3.72 0 0 1 1.32-.23 2.59 2.59 0 0 1 1.76.57 1.93 1.93 0 0 1 .66 1.54 2.71 2.71 0 0 1-.19 1 4.09 4.09 0 0 1-.59 1 13.45 13.45 0 0 1-1.31 1.37l-1.37 1.32v.05h3.73v1.11zM459.21 234.32h-1.21v-6.51l-.3.29-1.21 1-.63-.8 2.31-1.82h1.05v7.86zM464.44 226.36a2.78 2.78 0 0 1 1.77.51 1.66 1.66 0 0 1 .65 1.37 2.16 2.16 0 0 1-1.45 1.92 3.74 3.74 0 0 1 1.31 1 1.83 1.83 0 0 1 .39 1.14 1.91 1.91 0 0 1-.71 1.56 3 3 0 0 1-1.93.59 3.16 3.16 0 0 1-2-.55 1.85 1.85 0 0 1-.7-1.55 2 2 0 0 1 .37-1.18 3.09 3.09 0 0 1 1.21-.93 3 3 0 0 1-1-.91 1.94 1.94 0 0 1-.31-1.07 1.62 1.62 0 0 1 .67-1.36 2.82 2.82 0 0 1 1.73-.54zm-1.44 5.93a1 1 0 0 0 .39.87 1.68 1.68 0 0 0 1.06.31 1.64 1.64 0 0 0 1.08-.32 1.07 1.07 0 0 0 .38-.87 1.11 1.11 0 0 0-.35-.8 3.36 3.36 0 0 0-1.08-.67l-.16-.07a2.75 2.75 0 0 0-1 .69 1.3 1.3 0 0 0-.32.86zm1.45-4.95a1.33 1.33 0 0 0-.87.27.88.88 0 0 0-.33.72 1 1 0 0 0 .12.5 1.3 1.3 0 0 0 .34.4 4.13 4.13 0 0 0 .76.43 2.54 2.54 0 0 0 .91-.6 1.1 1.1 0 0 0 .27-.73.88.88 0 0 0-.33-.72 1.36 1.36 0 0 0-.89-.27z"/><ellipse class="c" cx="229.76" cy="230.34" rx="29.81" ry="30"/><path class="e" d="M217 231.1h3.95v5.38a11.35 11.35 0 0 1-1.86.45 13.17 13.17 0 0 1-1.92.13 4.83 4.83 0 0 1-3.75-1.44 5.8 5.8 0 0 1-1.32-4.07 5.42 5.42 0 0 1 1.49-4.05 5.6 5.6 0 0 1 4.1-1.46 8 8 0 0 1 3.18.65l-.62 1.46a6.2 6.2 0 0 0-2.61-.6 3.52 3.52 0 0 0-2.71 1.08 4.17 4.17 0 0 0-1 2.95 4.4 4.4 0 0 0 .9 3 3.26 3.26 0 0 0 2.58 1 8.48 8.48 0 0 0 1.82-.21v-2.77h-2.23v-1.5zM230.14 236.92l-1.07-3h-4.07l-1 3h-1.85l4-10.77h1.85l4 10.77h-1.86zm-1.53-4.49l-1-2.92q-.11-.29-.3-.92t-.27-.92a16.45 16.45 0 0 1-.58 2l-1 2.79h3.12zM233.42 236.92v-10.72h1.75v10.72h-1.75zM246.94 236.92h-2.15l-5.27-8.54h-.06v.48q.1 1.36.1 2.49v5.57h-1.56v-10.72h2.13l5.26 8.5q0-.17-.06-1.23t0-1.65v-5.62h1.61v10.72z"/></svg>