<svg xmlns="http://www.w3.org/2000/svg" viewBox="0 0 473.16 460"><defs><style>.a,.b,.c{fill:#fff;}.a{opacity:0.18;}.b{opacity:0.44;}.d{fill:none;stroke:#fff;stroke-miterlimit:10;stroke-width:3px;}.e{fill:#7b5ca3;}</style></defs><title>gains</title><path class="a" d="M310,230.77A80,80,0,1,1,230,150l0.85,0V120H230A110,110,0,1,0,340,230.77H310Z"/><path class="a" d="M350,230.77A120,120,0,1,1,230,110h0.85V80H230A150,150,0,1,0,380,230.77H350Z"/><path class="a" d="M390,230.77A160,160,0,1,1,230,70h0.85V40H230C125.07,40,40,125.07,40,230s85.07,190,190,190c104.68,0,189.57-84.65,190-189.23H390Z"/><path class="a" d="M430,230.77A200,200,0,0,1,88.58,371.42,200,200,0,0,1,230,30h0.85V0H230C103,0,0,103,0,230S103,460,230,460c126.77,0,229.57-102.56,230-229.23H430Z"/><path class="a" d="M269.81,230.77a40,40,0,1,1-40-40.77l0.85,0V160l-0.85,0a70,70,0,1,0,70,70.77h-30Z"/><path class="b" d="M337,230.77A107,107,0,1,1,230,123h0.85v-3H230A110,110,0,1,0,340,230.77h-3Z"/><path class="b" d="M377,230.77A147,147,0,1,1,230,83h0.85V80H230A150,150,0,1,0,380,230.77h-3Z"/><path class="b" d="M417,230.77a187,187,0,0,1-359.3,72A186.94,186.94,0,0,1,230,43h0.85V40H230C125.07,40,40,125.07,40,230s85.07,190,190,190c104.68,0,189.57-84.65,190-189.23h-3Z"/><path class="b" d="M297,230.77A67,67,0,1,1,230,163l0.85,0v-3L230,160a70,70,0,1,0,70,70.77h-3Z"/><path class="c" d="M230,163l0.85,0v-3L230,160a70,70,0,0,0-38.74,128.3l1.85-2.41A67,67,0,0,1,230,163Z"/><path class="c" d="M230,123h0.85v-3H230a110,110,0,0,0-31.8,215.33l0.56-2.93A107,107,0,0,1,230,123Z"/><path class="c" d="M230,83h0.85V80H230a150,150,0,0,0-6.86,299.84v-3A147,147,0,0,1,230,83Z"/><path class="c" d="M362.23,362.23A187,187,0,1,1,230,43h0.85V40H230C125.07,40,40,125.07,40,230s85.07,190,190,190a189.82,189.82,0,0,0,159-86l-2.48-1.65A187.48,187.48,0,0,1,362.23,362.23Z"/><line class="d" x1="230" y1="161.46" x2="311.55" y2="161.46"/><line class="d" x1="230" y1="121.52" x2="311.55" y2="121.52"/><line class="d" x1="230" y1="81.52" x2="311.55" y2="81.52"/><line class="d" x1="230" y1="41.52" x2="311.55" y2="41.52"/><line class="d" x1="230" y1="1.53" x2="311.55" y2="1.53"/><path class="c" d="M457,230.77A227.06,227.06,0,0,1,20.84,318.36,226.93,226.93,0,0,1,230,3h0.85V0H230C103,0,0,103,0,230S103,460,230,460c126.77,0,229.57-102.56,230-229.23h-3Z"/><circle class="c" cx="192.16" cy="285.96" r="15"/><path class="e" d="M186.93,290h-1.26v-5.07q0-.91,0-1.44l-0.3.29-1.21,1-0.63-.8,2.31-1.82h1.05V290Z"/><path class="e" d="M193.21,290H192v-5.07q0-.91,0-1.44l-0.3.29-1.21,1-0.63-.8,2.31-1.82h1.05V290Z"/><path class="e" d="M196.68,290l3.11-6.73H195.7v-1.11h5.43V283L198,290h-1.37Z"/><circle class="c" cx="198.16" cy="333.96" r="15"/><path class="e" d="M193,338.32h-1.26v-5.07q0-.91,0-1.44l-0.3.29-1.21,1-0.63-.8,2.31-1.82H193v7.86Z"/><path class="e" d="M200.65,332.27a1.82,1.82,0,0,1-.43,1.24,2.2,2.2,0,0,1-1.23.67v0a2.37,2.37,0,0,1,1.42.59,1.69,1.69,0,0,1,.47,1.25,2.07,2.07,0,0,1-.8,1.75,3.68,3.68,0,0,1-2.28.62,5.13,5.13,0,0,1-2.2-.42v-1.12a5,5,0,0,0,1.06.38,4.59,4.59,0,0,0,1.08.13,2.27,2.27,0,0,0,1.37-.34,1.23,1.23,0,0,0,.45-1,1,1,0,0,0-.5-0.92,3.19,3.19,0,0,0-1.57-.3h-0.68v-1h0.69q1.88,0,1.88-1.3a1,1,0,0,0-.33-0.78,1.47,1.47,0,0,0-1-.27,2.93,2.93,0,0,0-.86.13,4,4,0,0,0-1,.49l-0.62-.88a4.12,4.12,0,0,1,2.51-.79,3,3,0,0,1,1.85.51A1.67,1.67,0,0,1,200.65,332.27Z"/><path class="e" d="M205.61,338.32h-1.26v-5.07q0-.91,0-1.44l-0.3.29-1.21,1-0.63-.8,2.31-1.82h1.05v7.86Z"/><circle class="c" cx="224.16" cy="377.96" r="15"/><path class="e" d="M218.93,382.32h-1.26v-5.07q0-.91,0-1.44l-0.3.29-1.21,1-0.63-.8,2.31-1.82h1.05v7.86Z"/><path class="e" d="M227.11,380.61h-1.06v1.71h-1.23v-1.71h-3.59v-1l3.59-5.19h1.23v5.12h1.06v1Zm-2.29-1v-2q0-1.05.05-1.73h0a6.07,6.07,0,0,1-.47.86l-2,2.84h2.41Z"/><path class="e" d="M232.82,376.27a1.82,1.82,0,0,1-.43,1.24,2.2,2.2,0,0,1-1.23.67v0a2.37,2.37,0,0,1,1.42.59,1.69,1.69,0,0,1,.47,1.25,2.07,2.07,0,0,1-.8,1.75,3.68,3.68,0,0,1-2.28.62,5.13,5.13,0,0,1-2.2-.42v-1.12a5,5,0,0,0,1.06.38,4.59,4.59,0,0,0,1.08.13,2.27,2.27,0,0,0,1.37-.34,1.23,1.23,0,0,0,.45-1,1,1,0,0,0-.5-0.92,3.19,3.19,0,0,0-1.57-.3H229v-1h0.69q1.88,0,1.88-1.3a1,1,0,0,0-.33-0.78,1.47,1.47,0,0,0-1-.27,2.93,2.93,0,0,0-.86.13,4,4,0,0,0-1,.49l-0.62-.88a4.12,4.12,0,0,1,2.51-.79,3,3,0,0,1,1.85.51A1.67,1.67,0,0,1,232.82,376.27Z"/><circle class="c" cx="388.16" cy="332.96" r="15"/><path class="e" d="M382.93,337.32h-1.26v-5.07q0-.91,0-1.44l-0.3.29-1.21,1-0.63-.8,2.31-1.82h1.05v7.86Z"/><path class="e" d="M390.82,332.82a5.4,5.4,0,0,1-.94,3.47,3.42,3.42,0,0,1-2.82,1.14,4.28,4.28,0,0,1-1-.09v-1.06a3.52,3.52,0,0,0,1,.13,2.46,2.46,0,0,0,1.91-.69,3.34,3.34,0,0,0,.69-2.16h-0.06a1.91,1.91,0,0,1-.77.7,2.4,2.4,0,0,1-1,.21,2.11,2.11,0,0,1-1.64-.65,2.54,2.54,0,0,1-.6-1.78,2.73,2.73,0,0,1,.69-2,2.47,2.47,0,0,1,1.88-.73,2.51,2.51,0,0,1,2.42,1.59A4.65,4.65,0,0,1,390.82,332.82Zm-2.74-2.41a1.23,1.23,0,0,0-1,.43,1.85,1.85,0,0,0-.35,1.2,1.59,1.59,0,0,0,.32,1.06,1.22,1.22,0,0,0,1,.38,1.57,1.57,0,0,0,1.08-.38,1.15,1.15,0,0,0,.44-0.89,2.18,2.18,0,0,0-.19-0.89,1.6,1.6,0,0,0-.52-0.66A1.26,1.26,0,0,0,388.08,330.41Z"/><path class="e" d="M395.5,337.32h-1.26v-5.07q0-.91,0-1.44l-0.3.29-1.21,1-0.63-.8,2.31-1.82h1.05v7.86Z"/><circle class="c" cx="458.16" cy="229.96" r="15"/><path class="e" d="M454.55,234.32h-5.33v-1l2-2a17.08,17.08,0,0,0,1.19-1.3,3.08,3.08,0,0,0,.43-0.72,1.94,1.94,0,0,0,.13-0.73,1.11,1.11,0,0,0-.32-0.84,1.23,1.23,0,0,0-.88-0.31,2.36,2.36,0,0,0-.87.17,4.09,4.09,0,0,0-1,.6l-0.68-.83a4.4,4.4,0,0,1,1.27-.78,3.72,3.72,0,0,1,1.32-.23,2.59,2.59,0,0,1,1.76.57,1.93,1.93,0,0,1,.66,1.54,2.71,2.71,0,0,1-.19,1,4.09,4.09,0,0,1-.59,1,13.45,13.45,0,0,1-1.31,1.37l-1.37,1.32v0.05h3.73v1.11Z"/><path class="e" d="M459.21,234.32H458v-5.07q0-.91,0-1.44l-0.3.29-1.21,1-0.63-.8,2.31-1.82h1.05v7.86Z"/><path class="e" d="M464.44,226.36a2.78,2.78,0,0,1,1.77.51,1.66,1.66,0,0,1,.65,1.37,2.16,2.16,0,0,1-1.45,1.92,3.74,3.74,0,0,1,1.31,1,1.83,1.83,0,0,1,.39,1.14,1.91,1.91,0,0,1-.71,1.56,3,3,0,0,1-1.93.59,3.16,3.16,0,0,1-2-.55,1.85,1.85,0,0,1-.7-1.55,2,2,0,0,1,.37-1.18,3.09,3.09,0,0,1,1.21-.93,3,3,0,0,1-1-.91,1.94,1.94,0,0,1-.31-1.07,1.62,1.62,0,0,1,.67-1.36A2.82,2.82,0,0,1,464.44,226.36ZM463,232.29a1,1,0,0,0,.39.87,1.68,1.68,0,0,0,1.06.31,1.64,1.64,0,0,0,1.08-.32,1.07,1.07,0,0,0,.38-0.87,1.11,1.11,0,0,0-.35-0.8,3.36,3.36,0,0,0-1.08-.67l-0.16-.07a2.75,2.75,0,0,0-1,.69A1.3,1.3,0,0,0,463,232.29Zm1.45-4.95a1.33,1.33,0,0,0-.87.27,0.88,0.88,0,0,0-.33.72,1,1,0,0,0,.12.5,1.3,1.3,0,0,0,.34.4,4.13,4.13,0,0,0,.76.43,2.54,2.54,0,0,0,.91-0.6,1.1,1.1,0,0,0,.27-0.73,0.88,0.88,0,0,0-.33-0.72A1.36,1.36,0,0,0,464.43,227.34Z"/><ellipse class="c" cx="229.76" cy="230.34" rx="29.81" ry="30"/><path class="e" d="M217,231.1h3.95v5.38a11.35,11.35,0,0,1-1.86.45,13.17,13.17,0,0,1-1.92.13,4.83,4.83,0,0,1-3.75-1.44,5.8,5.8,0,0,1-1.32-4.07,5.42,5.42,0,0,1,1.49-4.05,5.6,5.6,0,0,1,4.1-1.46,8,8,0,0,1,3.18.65l-0.62,1.46a6.2,6.2,0,0,0-2.61-.6,3.52,3.52,0,0,0-2.71,1.08,4.17,4.17,0,0,0-1,2.95,4.4,4.4,0,0,0,.9,3,3.26,3.26,0,0,0,2.58,1,8.48,8.48,0,0,0,1.82-.21V232.6H217v-1.5Z"/><path class="e" d="M230.14,236.92l-1.07-3H225l-1,3h-1.85l4-10.77H228l4,10.77h-1.86Zm-1.53-4.49-1-2.92q-0.11-.29-0.3-0.92t-0.27-.92a16.45,16.45,0,0,1-.58,2l-1,2.79h3.12Z"/><path class="e" d="M233.42,236.92V226.2h1.75v10.72h-1.75Z"/><path class="e" d="M246.94,236.92h-2.15l-5.27-8.54h-0.06l0,0.48q0.1,1.36.1,2.49v5.57H238V226.2h2.13l5.26,8.5h0q0-.17-0.06-1.23t0-1.65V226.2h1.61v10.72Z"/></svg>