<svg xmlns="http://www.w3.org/2000/svg" viewBox="0 0 72.99 65.99"><defs><style>.a{fill:#fff;}</style></defs><title>icon-categories</title><path class="a" d="M.13 53.12a3.87 3.87 0 0 0 2.75 4.73l12.78 3.41-8.86-32.9zm21.39 10a3.89 3.89 0 0 0 4.76 2.73l14.28-3.81-26.4-26.25zm50.33-31.85l-30.3-30.16a3.83 3.83 0 0 0-2.7-1.11h-20.7a5.17 5.17 0 0 0-5.15 5.15v20.6a3.79 3.79 0 0 0 1.12 2.68l30.3 30.15a3.9 3.9 0 0 0 5.49 0l22-21.86a3.85 3.85 0 0 0-.06-5.45zm-47.66-17a4 4 0 1 1 4.05-4 4 4 0 0 1-4.05 3.99z"/></svg>