<svg xmlns="http://www.w3.org/2000/svg" viewBox="0 0 285 233.01"><defs><style>.a{fill:#fff;}</style></defs><title>icon-twitter-white</title><path class="a" d="M285,27.58a116.34,116.34,0,0,1-33.58,9.26A58.94,58.94,0,0,0,277.13,4.3,116.69,116.69,0,0,1,240,18.57,58.43,58.43,0,0,0,138.84,58.82a59.28,59.28,0,0,0,1.52,13.4A165.67,165.67,0,0,1,19.84,10.77a59.1,59.1,0,0,0,18.1,78.52,58,58,0,0,1-26.48-7.36v0.74a58.76,58.76,0,0,0,46.9,57.67,58.16,58.16,0,0,1-26.41,1A58.58,58.58,0,0,0,86.57,182.2a116.88,116.88,0,0,1-72.62,25.18A117.45,117.45,0,0,1,0,206.55,164.78,164.78,0,0,0,89.63,233C197.18,233,256,143.36,256,65.64q0-3.83-.17-7.61A119.25,119.25,0,0,0,285,27.58Z" transform="translate(0 0.01)"/></svg>