<svg xmlns="http://www.w3.org/2000/svg" viewBox="0 0 285 232.98"><title>icon-twitter</title><path d="M285 27.58a116.34 116.34 0 0 1-33.58 9.26 58.94 58.94 0 0 0 25.71-32.54 116.69 116.69 0 0 1-37.13 14.27 58.43 58.43 0 0 0-101.16 40.25 59.28 59.28 0 0 0 1.52 13.4 165.67 165.67 0 0 1-120.52-61.45 59.1 59.1 0 0 0 18.1 78.52 58 58 0 0 1-26.48-7.36v.74a58.76 58.76 0 0 0 46.9 57.67 58.16 58.16 0 0 1-26.41 1 58.58 58.58 0 0 0 54.62 40.86 116.88 116.88 0 0 1-72.62 25.18 117.45 117.45 0 0 1-13.95-.83 164.78 164.78 0 0 0 89.63 26.45c107.55 0 166.37-89.64 166.37-167.36q0-3.83-.17-7.61a119.25 119.25 0 0 0 29.17-30.45z"/></svg>