<svg xmlns="http://www.w3.org/2000/svg" viewBox="0 0 561 831"><defs><style>.a{fill:#f6f6f6;}.b{fill:#dcdcdc;}</style></defs><title>ipad-mini</title><rect class="a" x="31.92" y="83.74" width="497.19" height="662.72"/><path class="b" d="M518.65,0H42.35C18.21,0,0,18.22,0,42.39V788.61C0,812.78,18.21,831,42.35,831h476.3c24.14,0,42.35-18.22,42.35-42.39V42.39C561,18.22,542.79,0,518.65,0Zm39.18,788.61c0,22.35-16.84,39.21-39.18,39.21H42.35C20,827.83,3.17,811,3.17,788.61V42.39C3.17,20,20,3.17,42.35,3.17h476.3C541,3.17,557.83,20,557.83,42.39V788.61ZM518.65,7H42.35A35.44,35.44,0,0,0,17.06,17,35.43,35.43,0,0,0,6.95,42.39V788.61A35.43,35.43,0,0,0,17.06,814a35.44,35.44,0,0,0,25.29,10h476.3a34.43,34.43,0,0,0,35.4-35.43V42.39A35.43,35.43,0,0,0,543.94,17,35.44,35.44,0,0,0,518.65,7Zm32.23,781.66a31.26,31.26,0,0,1-32.23,32.25H42.35a32.3,32.3,0,0,1-23.05-9.1,32.28,32.28,0,0,1-9.18-23.15V42.39A32.28,32.28,0,0,1,19.3,19.24a32.3,32.3,0,0,1,23.05-9.1h476.3a32.3,32.3,0,0,1,23.05,9.11,32.27,32.27,0,0,1,9.18,23.15V788.61Zm-270.55-737a5.56,5.56,0,1,0-5.55-5.56A5.55,5.55,0,0,0,280.33,51.64Zm0-8.73a3.17,3.17,0,1,1-3.17,3.17A3.18,3.18,0,0,1,280.33,42.91Zm-0.11,726.28a20.5,20.5,0,1,0,20.48,20.5A20.49,20.49,0,0,0,280.22,769.19Zm0,37.83a17.33,17.33,0,1,1,17.31-17.33A17.34,17.34,0,0,1,280.22,807Zm4.63-24.88H275.6a3.22,3.22,0,0,0-3.22,3.22v9.26a3.22,3.22,0,0,0,3.22,3.22h9.25a3.22,3.22,0,0,0,3.22-3.22v-9.26A3.22,3.22,0,0,0,284.85,782.14Zm0,12.48a0,0,0,0,1,0,0H275.6a0,0,0,0,1,0,0v-9.26a0,0,0,0,1,0,0h9.25a0,0,0,0,1,0,0v9.26ZM527.11,81.77H33.89a4,4,0,0,0-4,4V744.49a4,4,0,0,0,4,4H527.11a4,4,0,0,0,4-4V85.74A4,4,0,0,0,527.11,81.77Zm0,662.72H33.89V85.74H527.11V744.49Z" transform="translate(0)"/></svg>