<svg xmlns="http://www.w3.org/2000/svg" viewBox="0 0 561 831"><defs><style>.a{fill:#f6f6f6;}.b{fill:#dcdcdc;}</style></defs><title>ipad-mini</title><path class="a" d="M31.92 83.74h497.19v662.72h-497.19z"/><path class="b" d="M518.65 0h-476.3c-24.14 0-42.35 18.22-42.35 42.39v746.22c0 24.17 18.21 42.39 42.35 42.39h476.3c24.14 0 42.35-18.22 42.35-42.39v-746.22c0-24.17-18.21-42.39-42.35-42.39zm39.18 788.61c0 22.35-16.84 39.21-39.18 39.21h-476.3c-22.35.01-39.18-16.82-39.18-39.21v-746.22c0-22.39 16.83-39.22 39.18-39.22h476.3c22.35 0 39.18 16.83 39.18 39.22v746.22zm-39.18-781.61h-476.3a35.44 35.44 0 0 0-25.29 10 35.43 35.43 0 0 0-10.11 25.39v746.22a35.43 35.43 0 0 0 10.11 25.39 35.44 35.44 0 0 0 25.29 10h476.3a34.43 34.43 0 0 0 35.4-35.43v-746.18a35.43 35.43 0 0 0-10.11-25.39 35.44 35.44 0 0 0-25.29-10zm32.23 781.66a31.26 31.26 0 0 1-32.23 32.25h-476.3a32.3 32.3 0 0 1-23.05-9.1 32.28 32.28 0 0 1-9.18-23.15v-746.27a32.28 32.28 0 0 1 9.18-23.15 32.3 32.3 0 0 1 23.05-9.1h476.3a32.3 32.3 0 0 1 23.05 9.11 32.27 32.27 0 0 1 9.18 23.15v746.21zm-270.55-737a5.56 5.56 0 1 0-5.55-5.56 5.55 5.55 0 0 0 5.55 5.54zm0-8.73a3.17 3.17 0 1 1-3.17 3.17 3.18 3.18 0 0 1 3.17-3.19zm-.11 726.28a20.5 20.5 0 1 0 20.48 20.5 20.49 20.49 0 0 0-20.48-20.52zm0 37.83a17.33 17.33 0 1 1 17.31-17.33 17.34 17.34 0 0 1-17.31 17.29zm4.63-24.88h-9.25a3.22 3.22 0 0 0-3.22 3.22v9.26a3.22 3.22 0 0 0 3.22 3.22h9.25a3.22 3.22 0 0 0 3.22-3.22v-9.26a3.22 3.22 0 0 0-3.22-3.24zm0 12.48h-9.25v-9.26h9.25v9.26zm242.26-712.87h-493.22a4 4 0 0 0-4 4v658.72a4 4 0 0 0 4 4h493.22a4 4 0 0 0 4-4v-658.75a4 4 0 0 0-4-3.97zm0 662.72h-493.22v-658.75h493.22v658.75z"/></svg>