<svg xmlns="http://www.w3.org/2000/svg" viewBox="0 0 664.17 493.96"><defs><style>.a,.b,.i{fill:none;}.a,.i{stroke:#fff;stroke-miterlimit:10;}.a,.b,.c{fill-rule:evenodd;}.a{opacity:0.2;}.c,.d{fill:#fff;}.e{fill:#00a2d1;}.f{fill:#0ad100;}.g{fill:#f67521;}.h{fill:#f60d1a;}</style></defs><title>media-type</title><path class="a" d="M335.8 75.46c115.43 0 209 93.57 209 209s-93.57 209-209 209-209-93.57-209-209 93.57-209 209-209z"/><path class="b" d="M335.8 75.46c115.43 0 209 93.57 209 209s-93.57 209-209 209-209-93.57-209-209 93.57-209 209-209z"/><path class="c" d="M335.8 94.46c-104.93 0-190 85.07-190 190s85.07 190 190 190 190-85.07 190-190-85.07-190-190-190zm0 340.83a150.5 150.5 0 1 1 150.5-150.49 150.5 150.5 0 0 1-150.5 150.5z"/><path class="d" d="M156 10.15v-10h1.63v8.6h4.23v1.4h-5.86zM172.45 5.14a5.47 5.47 0 0 1-1.22 3.79 5.13 5.13 0 0 1-6.93 0 5.5 5.5 0 0 1-1.21-3.82 5.42 5.42 0 0 1 1.22-3.8 4.5 4.5 0 0 1 3.47-1.31 4.4 4.4 0 0 1 3.45 1.35 5.46 5.46 0 0 1 1.22 3.79zm-7.63 0a4.48 4.48 0 0 0 .75 2.8 3 3 0 0 0 4.43.06 4.49 4.49 0 0 0 .74-2.81 4.5 4.5 0 0 0-.74-2.84 2.6 2.6 0 0 0-2.19-1 2.65 2.65 0 0 0-2.22 1 4.44 4.44 0 0 0-.77 2.79zM178.85 1.42a2.69 2.69 0 0 0-2.21 1 4.27 4.27 0 0 0-.81 2.75 4.3 4.3 0 0 0 .77 2.83 2.74 2.74 0 0 0 2.25.94 5.89 5.89 0 0 0 1.23-.13q.59-.13 1.24-.32v1.4a7.5 7.5 0 0 1-2.67.44 4.26 4.26 0 0 1-3.37-1.33 5.56 5.56 0 0 1-1.18-3.8 6.15 6.15 0 0 1 .57-2.73 4.07 4.07 0 0 1 1.65-1.83 5 5 0 0 1 2.54-.64 6.29 6.29 0 0 1 2.83.64l-.59 1.36a8.74 8.74 0 0 0-1.1-.4 3.86 3.86 0 0 0-1.15-.18zM189.67 10.15l-1-2.78h-3.82l-1 2.78h-1.72l3.74-10h1.78l3.74 10h-1.74zm-1.43-4.15l-.94-2.75q-.1-.25-.3-.86t-.25-.86a15.36 15.36 0 0 1-.54 1.84l-.88 2.63h2.91zM192.72 10.15v-10h1.63v8.6h4.23v1.4h-5.87zM210.56 3.18a2.91 2.91 0 0 1-1 2.4 4.52 4.52 0 0 1-2.92.83h-1v3.74h-1.63v-10h2.88a4.36 4.36 0 0 1 2.81.77 2.75 2.75 0 0 1 .86 2.26zm-5 1.86h.87a3.11 3.11 0 0 0 1.85-.44 1.59 1.59 0 0 0 .59-1.37 1.55 1.55 0 0 0-.53-1.29 2.6 2.6 0 0 0-1.64-.42h-1.13v3.48zM214.19 6.16v4h-1.63v-10h2.82a4.64 4.64 0 0 1 2.86.72 2.6 2.6 0 0 1 .93 2.19 2.73 2.73 0 0 1-1.94 2.66l2.82 4.42h-1.85l-2.39-4h-1.61zm0-1.35h1.13a2.59 2.59 0 0 0 1.68-.43 1.54 1.54 0 0 0 .51-1.26 1.35 1.35 0 0 0-.55-1.22 3 3 0 0 0-1.67-.37h-1.08v3.28zM227.16 10.15h-5.65v-10h5.65v1.39h-4v2.72h3.77v1.37h-3.77v3.13h4v1.39zM235.08 7.44a2.52 2.52 0 0 1-1 2.09 4.19 4.19 0 0 1-2.66.76 6.34 6.34 0 0 1-2.78-.53v-1.54a7.53 7.53 0 0 0 1.45.51 6.16 6.16 0 0 0 1.43.18 2.28 2.28 0 0 0 1.48-.37 1.2 1.2 0 0 0 .46-1 1.24 1.24 0 0 0-.42-1 6.38 6.38 0 0 0-1.75-.92 4.63 4.63 0 0 1-1.93-1.26 2.68 2.68 0 0 1-.56-1.71 2.39 2.39 0 0 1 .89-2 3.69 3.69 0 0 1 2.39-.65 7 7 0 0 1 2.86.63l-.53 1.37a6.25 6.25 0 0 0-2.41-.58 1.83 1.83 0 0 0-1.2.35 1.13 1.13 0 0 0-.41.91 1.28 1.28 0 0 0 .16.67 1.68 1.68 0 0 0 .54.52 9.13 9.13 0 0 0 1.35.65 7.4 7.4 0 0 1 1.61.85 2.51 2.51 0 0 1 .75.9 2.69 2.69 0 0 1 .28 1.17zM242.78 7.44a2.52 2.52 0 0 1-1 2.09 4.19 4.19 0 0 1-2.66.76 6.34 6.34 0 0 1-2.78-.53v-1.54a7.53 7.53 0 0 0 1.45.51 6.16 6.16 0 0 0 1.43.18 2.28 2.28 0 0 0 1.43-.37 1.2 1.2 0 0 0 .46-1 1.24 1.24 0 0 0-.42-1 6.38 6.38 0 0 0-1.69-.87 4.63 4.63 0 0 1-1.93-1.26 2.68 2.68 0 0 1-.56-1.71 2.39 2.39 0 0 1 .89-2 3.69 3.69 0 0 1 2.37-.7 7 7 0 0 1 2.86.63l-.52 1.37a6.25 6.25 0 0 0-2.38-.56 1.83 1.83 0 0 0-1.2.35 1.13 1.13 0 0 0-.41.91 1.28 1.28 0 0 0 .16.67 1.68 1.68 0 0 0 .54.52 9.13 9.13 0 0 0 1.35.65 7.4 7.4 0 0 1 1.61.85 2.51 2.51 0 0 1 .75.9 2.69 2.69 0 0 1 .25 1.15zM247.59 7v-1.26h5.88v1.26h-5.88zM263 10.15h-1.6v-6.45q0-1.16.05-1.83l-.39.36-1.53 1.26-.81-1 2.94-2.31h1.34v10zM271 10.15h-1.61v-6.45q0-1.16.05-1.83l-.39.36-1.53 1.26-.81-1 2.94-2.31h1.35v10zM278.64 3.14a4.06 4.06 0 0 1-.56 2.36 1.91 1.91 0 0 1-1.66.79 1.85 1.85 0 0 1-1.61-.82 4 4 0 0 1-.57-2.33q0-3.12 2.18-3.12a1.91 1.91 0 0 1 1.65.81 4 4 0 0 1 .57 2.31zm-3.08 0a4.35 4.35 0 0 0 .2 1.52.68.68 0 0 0 .65.5q.9 0 .9-2t-.9-2a.68.68 0 0 0-.65.5 4.35 4.35 0 0 0-.2 1.49zm7.55-3l-5.54 10h-1.33l5.54-10h1.33zm2 7a4 4 0 0 1-.57 2.36 1.91 1.91 0 0 1-1.65.79 1.86 1.86 0 0 1-1.61-.81 4 4 0 0 1-.57-2.33q0-3.12 2.19-3.12a1.91 1.91 0 0 1 1.64.81 3.91 3.91 0 0 1 .6 2.3zm-3.08 0a4.36 4.36 0 0 0 .2 1.52.68.68 0 0 0 .65.51q.9 0 .9-2t-.9-2a.68.68 0 0 0-.65.49 4.23 4.23 0 0 0-.16 1.48zM6.62 418.27a2.92 2.92 0 0 1-1 2.4 4.52 4.52 0 0 1-2.92.83h-1v3.74h-1.7v-10h2.88a4.35 4.35 0 0 1 2.81.77 2.75 2.75 0 0 1 .93 2.26zm-5 1.86h.88a3.12 3.12 0 0 0 1.85-.44 1.59 1.59 0 0 0 .59-1.37 1.55 1.55 0 0 0-.53-1.32 2.6 2.6 0 0 0-1.64-.42h-1.14v3.51zM10.25 421.25v4h-1.64v-10h2.82a4.64 4.64 0 0 1 2.86.72 2.6 2.6 0 0 1 .93 2.19 2.73 2.73 0 0 1-1.94 2.66l2.82 4.42h-1.85l-2.39-4h-1.61zm0-1.35h1.13a2.59 2.59 0 0 0 1.65-.42 1.54 1.54 0 0 0 .51-1.26 1.35 1.35 0 0 0-.54-1.22 3 3 0 0 0-1.67-.37h-1.08v3.27zM17.56 425.24v-10h1.64v10h-1.64zM30.16 425.24h-2l-4.92-8h-.05v.44q.1 1.27.1 2.32v5.2h-1.46v-10h2l4.9 7.92c0-.11 0-.49-.05-1.15v-6.78h1.5v10zM36.25 425.24h-1.63v-8.59h-2.94v-1.4h7.51v1.4h-2.94v8.59zM43.6 422.13v-1.3h5.88v1.3h-5.88zM57.68 419a3.43 3.43 0 0 1 2.39.8 2.8 2.8 0 0 1 .93 2.2 3.18 3.18 0 0 1-1 2.5 4.12 4.12 0 0 1-2.85.9 5.39 5.39 0 0 1-2.63-.54v-1.46a4.86 4.86 0 0 0 1.27.49 5.81 5.81 0 0 0 1.33.17 2.48 2.48 0 0 0 1.65-.49 1.77 1.77 0 0 0 .57-1.42q0-1.79-2.28-1.79a6 6 0 0 0-.79.06q-.47.07-.83.15l-.72-.42.38-4.88h5.2v1.43h-3.82l-.23 2.47.58-.1a5.43 5.43 0 0 1 .85-.07zM63.42 425.24l4-8.57h-5.2v-1.42h6.91v1.12l-3.93 8.86h-1.78zM74.64 418.23a4.06 4.06 0 0 1-.56 2.36 1.91 1.91 0 0 1-1.66.79 1.85 1.85 0 0 1-1.61-.82 4 4 0 0 1-.57-2.33q0-3.12 2.18-3.12a1.91 1.91 0 0 1 1.65.81 4 4 0 0 1 .57 2.31zm-3.08 0a4.36 4.36 0 0 0 .2 1.52.68.68 0 0 0 .65.5q.9 0 .9-2t-.9-2a.68.68 0 0 0-.65.5 4.35 4.35 0 0 0-.19 1.49zm7.55-3l-5.54 10h-1.32l5.54-10h1.33zm2 7a4 4 0 0 1-.57 2.36 1.91 1.91 0 0 1-1.65.79 1.86 1.86 0 0 1-1.61-.81 4 4 0 0 1-.57-2.33q0-3.12 2.19-3.12a1.91 1.91 0 0 1 1.64.81 3.91 3.91 0 0 1 .61 2.3zm-3.08 0a4.36 4.36 0 0 0 .2 1.52.68.68 0 0 0 .65.51q.9 0 .9-2t-.9-2a.68.68 0 0 0-.65.49 4.23 4.23 0 0 0-.16 1.48zM610.56 395.42h-1.63v-8.59h-2.93v-1.4h7.51v1.4h-2.94v8.59zM620.73 385.43h1.7l-3.5 10h-1.73l-3.49-10h1.68l2.08 6.21c.11.3.23.68.35 1.15s.2.81.24 1q.09-.52.27-1.2t.3-1zM626.62 392.31v-1.31h5.88v1.3h-5.88zM642 395.42h-1.61v-6.42q0-1.15.05-1.83c-.11.11-.23.23-.39.36l-1.53 1.26-.81-1 2.94-2.31h1.35v10zM646.44 395.42l4-8.57h-5.2v-1.42h6.91v1.12l-3.93 8.86h-1.74zM657.66 388.41a4.06 4.06 0 0 1-.56 2.36 1.91 1.91 0 0 1-1.66.79 1.85 1.85 0 0 1-1.61-.82 4.05 4.05 0 0 1-.57-2.33q0-3.12 2.18-3.12a1.91 1.91 0 0 1 1.65.81 3.94 3.94 0 0 1 .57 2.31zm-3.08 0a4.34 4.34 0 0 0 .2 1.52.68.68 0 0 0 .65.5q.9 0 .9-2t-.9-2a.68.68 0 0 0-.65.5 4.35 4.35 0 0 0-.19 1.49zm7.55-3l-5.54 10h-1.33l5.54-10h1.33zm2 7a4 4 0 0 1-.57 2.36 1.91 1.91 0 0 1-1.65.79 1.86 1.86 0 0 1-1.61-.81 4 4 0 0 1-.57-2.33q0-3.12 2.19-3.12a1.91 1.91 0 0 1 1.64.81 3.91 3.91 0 0 1 .61 2.3zm-3.08 0a4.37 4.37 0 0 0 .2 1.52.68.68 0 0 0 .65.51q.9 0 .9-2t-.9-2a.68.68 0 0 0-.65.49 4.25 4.25 0 0 0-.16 1.48zM527 68.79v4h-1.63v-10h2.82a4.64 4.64 0 0 1 2.86.72 2.6 2.6 0 0 1 .95 2.19 2.73 2.73 0 0 1-2 2.66l2.82 4.42h-1.82l-2.39-4h-1.61zm0-1.35h1.13a2.59 2.59 0 0 0 1.65-.42 1.54 1.54 0 0 0 .51-1.26 1.35 1.35 0 0 0-.55-1.22 3 3 0 0 0-1.67-.37h-1.07v3.27zM540.49 72.78l-1-2.78h-3.82l-1 2.78h-1.67l3.74-10h1.78l3.74 10h-1.74zm-1.43-4.18l-.94-2.72q-.1-.27-.28-.86c-.12-.39-.2-.68-.25-.86a15.45 15.45 0 0 1-.54 1.84l-.9 2.6h2.91zM551.68 67.69a5 5 0 0 1-1.37 3.78 5.52 5.52 0 0 1-4 1.31h-2.8v-10h3.09a5.11 5.11 0 0 1 3.71 1.29 4.8 4.8 0 0 1 1.37 3.62zm-1.72.05q0-3.59-3.36-3.59h-1.42v7.25h1.16q3.66.01 3.66-3.65zM553.82 72.78v-10h1.63v10h-1.63zM567 67.77a5.47 5.47 0 0 1-1.22 3.79 5.13 5.13 0 0 1-6.93 0 5.5 5.5 0 0 1-1.21-3.82 5.42 5.42 0 0 1 1.22-3.8 4.5 4.5 0 0 1 3.48-1.33 4.41 4.41 0 0 1 3.41 1.39 5.46 5.46 0 0 1 1.25 3.77zm-7.63 0a4.48 4.48 0 0 0 .75 2.8 3 3 0 0 0 4.41 0 5.67 5.67 0 0 0 0-5.6 2.6 2.6 0 0 0-2.19-1 2.65 2.65 0 0 0-2.22 1 4.44 4.44 0 0 0-.78 2.8zM572 69.67v-1.3h5.88v1.3h-5.88zM589.46 72.78h-6.77v-1.21l2.57-2.57a21.91 21.91 0 0 0 1.51-1.66 4 4 0 0 0 .54-.92 2.49 2.49 0 0 0 .17-.92 1.41 1.41 0 0 0-.41-1.07 1.56 1.56 0 0 0-1.07-.43 3 3 0 0 0-1.11.21 5.19 5.19 0 0 0-1.24.77l-.87-1.06a5.59 5.59 0 0 1 1.62-1 4.74 4.74 0 0 1 1.67-.29 3.3 3.3 0 0 1 2.24.73 2.46 2.46 0 0 1 .84 2 3.43 3.43 0 0 1-.24 1.29 5.2 5.2 0 0 1-.75 1.25 17 17 0 0 1-1.67 1.75l-1.74 1.68v.07h4.74v1.42zM597.45 72.78h-6.77v-1.21l2.57-2.57a21.91 21.91 0 0 0 1.51-1.66 4 4 0 0 0 .54-.92 2.49 2.49 0 0 0 .17-.92 1.41 1.41 0 0 0-.41-1.07 1.56 1.56 0 0 0-1.12-.39 3 3 0 0 0-1.11.21 5.19 5.19 0 0 0-1.24.77l-.87-1.06a5.59 5.59 0 0 1 1.62-1 4.74 4.74 0 0 1 1.67-.29 3.3 3.3 0 0 1 2.24.73 2.46 2.46 0 0 1 .84 2 3.43 3.43 0 0 1-.24 1.29 5.2 5.2 0 0 1-.75 1.25 17 17 0 0 1-1.67 1.75l-1.73 1.61v.07h4.74v1.42zM603 65.77a4.06 4.06 0 0 1-.56 2.36 1.91 1.91 0 0 1-1.66.79 1.85 1.85 0 0 1-1.61-.82 4.05 4.05 0 0 1-.57-2.33q0-3.12 2.18-3.12a1.9 1.9 0 0 1 1.65.81 3.94 3.94 0 0 1 .57 2.31zm-3.08 0a4.34 4.34 0 0 0 .2 1.52.68.68 0 0 0 .65.5q.9 0 .9-2t-.9-2a.68.68 0 0 0-.65.5 4.34 4.34 0 0 0-.12 1.49zm7.55-3l-5.54 10h-1.33l5.54-10h1.33zm2 7a4 4 0 0 1-.57 2.36 1.91 1.91 0 0 1-1.65.79 1.86 1.86 0 0 1-1.61-.81 4 4 0 0 1-.57-2.33q0-3.12 2.19-3.12a1.91 1.91 0 0 1 1.64.81 3.91 3.91 0 0 1 .64 2.31zm-3.08 0a4.37 4.37 0 0 0 .2 1.52.68.68 0 0 0 .65.51q.9 0 .9-2t-.9-2a.68.68 0 0 0-.65.49 4.25 4.25 0 0 0-.12 1.49zM266.75 292l-8-19.78h-.12q.12 1.82.12 3.72v16.06h-1.44v-21.45h2.31l7.59 18.84h.09l7.59-18.84h2.26v21.45h-1.51v-16.27q0-1.7.18-3.52h-.12l-8 19.75h-1zM294.92 292h-11.7v-21.45h11.7v1.38h-10.21v8.07h9.64v1.38h-9.64v9.18h10.21v1.44zM316 281.05q0 5.39-2.83 8.15t-8.28 2.8h-5.13v-21.45h5.79q5.13 0 7.8 2.68t2.65 7.82zm-1.63.06q0-4.6-2.34-6.92t-6.86-2.32h-3.94v18.78h3.54q9.63 0 9.63-9.54zM320.95 292v-21.45h1.49v21.45h-1.49zM338.82 284.4h-8.7l-3 7.56h-1.66l8.61-21.5h1l8.44 21.5h-1.68zm-8.16-1.35h7.66l-2.92-7.72q-.37-.91-.88-2.52a23.49 23.49 0 0 1-.86 2.55zM359.88 292h-1.51v-20h-7v-1.41h15.42v1.41h-7v20zM374.94 282.27l6.27-11.72h1.61l-7.13 13.14v8.31h-1.54v-8.2l-7.15-13.25h1.71zM398.75 276.7a5.69 5.69 0 0 1-2.11 4.76 9.48 9.48 0 0 1-6 1.66h-3.31v8.88h-1.49v-21.45h5.24q7.67 0 7.67 6.15zm-11.4 5.13h2.94q3.62 0 5.23-1.19a4.5 4.5 0 0 0 1.61-3.87 4.37 4.37 0 0 0-1.52-3.67 7.62 7.62 0 0 0-4.72-1.19h-3.54v9.93zM415.11 292h-11.71v-21.45h11.7v1.38h-10.2v8.07h9.64v1.38h-9.64v9.18h10.21v1.44z"/><path class="e" d="M335.62 119.46a165.14 165.14 0 0 1 162.06 133.46l9.11-1.8c-16.19-83.35-86.5-141.37-171.5-141.37v9.71h.32z"/><path class="f" d="M507 251.12l-9.25 1.8a165.15 165.15 0 0 1-56.05 158l6.15 7.33c50.24-42.13 71.68-102.72 59.15-167.13z"/><path class="g" d="M335.8 449.46a165 165 0 0 1-42.8-324.38l-2.51-9.38c-26.08 7-46.35 17.55-67 34.92-73.86 62-83.49 172.22-21.52 246.14a174.47 174.47 0 0 0 245.9 21.54l-6.15-7.3a164.32 164.32 0 0 1-105.92 38.46z"/><path class="h" d="M335.3 119.47v-9.72a174.54 174.54 0 0 0-45.13 6l2.5 9.45a163.55 163.55 0 0 1 42.63-5.73z"/><path class="i" d="M91.43 414.32l77.83-42.08M514.47 72.8l-58.28 65.32M513.7 348.44l81.1 35.02M335.8 87.3v35M530.65 246.96l-33.89 6.42M440.63 409.96l21.12 26.7M310.74 98.33l-12.41-88.68M283.97 94.46l8.72 31.06"/></svg>