<svg xmlns="http://www.w3.org/2000/svg" viewBox="0 0 664.17 493.96"><defs><style>.a,.b,.i{fill:none;}.a,.i{stroke:#fff;stroke-miterlimit:10;}.a,.b,.c{fill-rule:evenodd;}.a{opacity:0.2;}.c,.d{fill:#fff;}.e{fill:#00a2d1;}.f{fill:#0ad100;}.g{fill:#f67521;}.h{fill:#f60d1a;}</style></defs><title>media-type</title><path class="a" d="M335.8,75.46c115.43,0,209,93.57,209,209s-93.57,209-209,209-209-93.57-209-209S220.37,75.46,335.8,75.46Z"/><path class="b" d="M335.8,75.46c115.43,0,209,93.57,209,209s-93.57,209-209,209-209-93.57-209-209S220.37,75.46,335.8,75.46Z"/><path class="c" d="M335.8,94.46c-104.93,0-190,85.07-190,190s85.07,190,190,190,190-85.07,190-190S440.73,94.46,335.8,94.46Zm0,340.83A150.5,150.5,0,1,1,486.3,284.8,150.5,150.5,0,0,1,335.8,435.3Z"/><path class="d" d="M210.86,5.14a5.47,5.47,0,0,1-1.22,3.79,5.13,5.13,0,0,1-6.93,0,5.5,5.5,0,0,1-1.21-3.82,5.42,5.42,0,0,1,1.22-3.8A4.5,4.5,0,0,1,206.2,0a4.4,4.4,0,0,1,3.45,1.35A5.46,5.46,0,0,1,210.86,5.14Zm-7.63,0a4.48,4.48,0,0,0,.75,2.8,3,3,0,0,0,4.41,0,4.49,4.49,0,0,0,.74-2.81,4.5,4.5,0,0,0-.73-2.79,2.6,2.6,0,0,0-2.19-1,2.65,2.65,0,0,0-2.22,1A4.44,4.44,0,0,0,203.23,5.14Z"/><path class="d" d="M221.33,10.15h-2l-4.92-8h-0.05l0,0.44q0.1,1.27.1,2.32v5.2H213v-10h2l4.9,7.92h0q0-.16-0.05-1.15t0-1.54V0.16h1.5v10Z"/><path class="d" d="M224,10.15v-10h1.63V8.75h4.23v1.4H224Z"/><path class="d" d="M231.56,10.15v-10h1.63v10h-1.63Z"/><path class="d" d="M244.16,10.15h-2l-4.92-8h-0.05l0,0.44q0.1,1.27.1,2.32v5.2h-1.48v-10h2l4.9,7.92h0q0-.16-0.05-1.15t0-1.54V0.16h1.5v10Z"/><path class="d" d="M252.45,10.15H246.8v-10h5.65V1.54h-4V4.26h3.77V5.63h-3.77V8.76h4v1.39Z"/><path class="d" d="M257.49,7V5.74h5.88V7h-5.88Z"/><path class="d" d="M275.31,8H274v2.18H272.4V8h-4.57V6.73l4.57-6.6H274V6.64h1.35V8ZM272.4,6.64V4.13q0-1.34.07-2.19h-0.05a7.73,7.73,0,0,1-.6,1.09l-2.48,3.61h3.07Z"/><path class="d" d="M280.54,3.14A4.06,4.06,0,0,1,280,5.5a1.91,1.91,0,0,1-1.66.79,1.85,1.85,0,0,1-1.61-.82,4,4,0,0,1-.57-2.33q0-3.12,2.18-3.12A1.91,1.91,0,0,1,280,.82,4,4,0,0,1,280.54,3.14Zm-3.08,0a4.35,4.35,0,0,0,.2,1.52,0.68,0.68,0,0,0,.65.5q0.9,0,.9-2t-0.9-2a0.68,0.68,0,0,0-.65.5A4.35,4.35,0,0,0,277.46,3.15Zm7.55-3-5.54,10h-1.33l5.54-10H285Zm2,7a4,4,0,0,1-.57,2.36,1.91,1.91,0,0,1-1.65.79,1.86,1.86,0,0,1-1.61-.81,4,4,0,0,1-.57-2.33q0-3.12,2.19-3.12a1.91,1.91,0,0,1,1.64.81A3.91,3.91,0,0,1,287,7.14Zm-3.08,0a4.36,4.36,0,0,0,.2,1.52,0.68,0.68,0,0,0,.65.51q0.9,0,.9-2t-0.9-2a0.68,0.68,0,0,0-.65.49A4.23,4.23,0,0,0,284,7.14Z"/><path class="d" d="M6.62,418.27a2.92,2.92,0,0,1-1,2.4,4.52,4.52,0,0,1-2.92.83h-1v3.74H0v-10H2.88a4.35,4.35,0,0,1,2.81.77A2.75,2.75,0,0,1,6.62,418.27Zm-5,1.86H2.5a3.12,3.12,0,0,0,1.85-.44,1.59,1.59,0,0,0,.59-1.37A1.55,1.55,0,0,0,4.41,417a2.6,2.6,0,0,0-1.64-.42H1.63v3.51Z"/><path class="d" d="M10.25,421.25v4H8.61v-10h2.82a4.64,4.64,0,0,1,2.86.72,2.6,2.6,0,0,1,.93,2.19,2.73,2.73,0,0,1-1.94,2.66l2.82,4.42H14.25l-2.39-4H10.25Zm0-1.35h1.13a2.59,2.59,0,0,0,1.65-.42,1.54,1.54,0,0,0,.51-1.26A1.35,1.35,0,0,0,13,417a3,3,0,0,0-1.67-.37H10.25v3.27Z"/><path class="d" d="M17.56,425.24v-10H19.2v10H17.56Z"/><path class="d" d="M30.16,425.24h-2l-4.92-8H23.19l0,0.44q0.1,1.27.1,2.32v5.2H21.83v-10h2l4.9,7.92h0c0-.11,0-0.49-0.05-1.15s0-1.17,0-1.54v-5.24h1.5v10Z"/><path class="d" d="M36.25,425.24H34.62v-8.59H31.68v-1.4h7.51v1.4H36.25v8.59Z"/><path class="d" d="M43.6,422.13v-1.3h5.88v1.3H43.6Z"/><path class="d" d="M57.68,419a3.43,3.43,0,0,1,2.39.8A2.8,2.8,0,0,1,61,422a3.18,3.18,0,0,1-1,2.5,4.12,4.12,0,0,1-2.85.9,5.39,5.39,0,0,1-2.63-.54v-1.46a4.86,4.86,0,0,0,1.27.49,5.81,5.81,0,0,0,1.33.17,2.48,2.48,0,0,0,1.65-.49,1.77,1.77,0,0,0,.57-1.42q0-1.79-2.28-1.79a6,6,0,0,0-.79.06q-0.47.07-.83,0.15l-0.72-.42,0.38-4.88h5.2v1.43H56.48l-0.23,2.47,0.58-.1A5.43,5.43,0,0,1,57.68,419Z"/><path class="d" d="M63.42,425.24l4-8.57h-5.2v-1.42h6.91v1.12l-3.93,8.86H63.42Z"/><path class="d" d="M74.64,418.23a4.06,4.06,0,0,1-.56,2.36,1.91,1.91,0,0,1-1.66.79,1.85,1.85,0,0,1-1.61-.82,4,4,0,0,1-.57-2.33q0-3.12,2.18-3.12a1.91,1.91,0,0,1,1.65.81A4,4,0,0,1,74.64,418.23Zm-3.08,0a4.36,4.36,0,0,0,.2,1.52,0.68,0.68,0,0,0,.65.5q0.9,0,.9-2t-0.9-2a0.68,0.68,0,0,0-.65.5A4.35,4.35,0,0,0,71.57,418.24Zm7.55-3-5.54,10H72.25l5.54-10h1.33Zm2,7a4,4,0,0,1-.57,2.36,1.91,1.91,0,0,1-1.65.79,1.86,1.86,0,0,1-1.61-.81,4,4,0,0,1-.57-2.33q0-3.12,2.19-3.12a1.91,1.91,0,0,1,1.64.81A3.91,3.91,0,0,1,81.15,422.23Zm-3.08,0a4.36,4.36,0,0,0,.2,1.52,0.68,0.68,0,0,0,.65.51q0.9,0,.9-2t-0.9-2a0.68,0.68,0,0,0-.65.49A4.23,4.23,0,0,0,78.07,422.23Z"/><path class="d" d="M610.56,395.42h-1.63v-8.59H606v-1.4h7.51v1.4h-2.94v8.59Z"/><path class="d" d="M620.73,385.43h1.7l-3.5,10H617.2l-3.49-10h1.68l2.08,6.21c0.11,0.3.23,0.68,0.35,1.15s0.2,0.81.24,1q0.09-.52.27-1.2t0.3-1Z"/><path class="d" d="M626.62,392.31V391h5.88v1.3h-5.88Z"/><path class="d" d="M642,395.42h-1.61V389q0-1.15.05-1.83c-0.11.11-.23,0.23-0.39,0.36l-1.53,1.26-0.81-1,2.94-2.31H642v10Z"/><path class="d" d="M646.44,395.42l4-8.57h-5.2v-1.42h6.91v1.12l-3.93,8.86h-1.74Z"/><path class="d" d="M657.66,388.41a4.06,4.06,0,0,1-.56,2.36,1.91,1.91,0,0,1-1.66.79,1.85,1.85,0,0,1-1.61-.82,4.05,4.05,0,0,1-.57-2.33q0-3.12,2.18-3.12a1.91,1.91,0,0,1,1.65.81A3.94,3.94,0,0,1,657.66,388.41Zm-3.08,0a4.34,4.34,0,0,0,.2,1.52,0.68,0.68,0,0,0,.65.5q0.9,0,.9-2t-0.9-2a0.68,0.68,0,0,0-.65.5A4.35,4.35,0,0,0,654.59,388.42Zm7.55-3-5.54,10h-1.33l5.54-10h1.33Zm2,7a4,4,0,0,1-.57,2.36,1.91,1.91,0,0,1-1.65.79,1.86,1.86,0,0,1-1.61-.81,4,4,0,0,1-.57-2.33q0-3.12,2.19-3.12a1.91,1.91,0,0,1,1.64.81A3.91,3.91,0,0,1,664.17,392.41Zm-3.08,0a4.37,4.37,0,0,0,.2,1.52,0.68,0.68,0,0,0,.65.51q0.9,0,.9-2t-0.9-2a0.68,0.68,0,0,0-.65.49A4.25,4.25,0,0,0,661.09,392.41Z"/><path class="d" d="M527,68.79v4h-1.63v-10h2.82a4.64,4.64,0,0,1,2.86.72A2.6,2.6,0,0,1,532,65.7,2.73,2.73,0,0,1,530,68.36l2.82,4.42H531l-2.39-4H527Zm0-1.35h1.13a2.59,2.59,0,0,0,1.65-.42,1.54,1.54,0,0,0,.51-1.26,1.35,1.35,0,0,0-.55-1.22,3,3,0,0,0-1.67-.37H527v3.27Z"/><path class="d" d="M540.49,72.78l-1-2.78h-3.82l-1,2.78H533l3.74-10h1.78l3.74,10h-1.74Zm-1.43-4.18-0.94-2.72q-0.1-.27-0.28-0.86c-0.12-.39-0.2-0.68-0.25-0.86a15.45,15.45,0,0,1-.54,1.84l-0.9,2.6h2.91Z"/><path class="d" d="M551.68,67.69a5,5,0,0,1-1.37,3.78,5.52,5.52,0,0,1-4,1.31h-2.8v-10h3.09a5.11,5.11,0,0,1,3.71,1.29A4.8,4.8,0,0,1,551.68,67.69Zm-1.72.05q0-3.59-3.36-3.59h-1.42v7.25h1.16Q550,71.41,550,67.75Z"/><path class="d" d="M553.82,72.78v-10h1.63v10h-1.63Z"/><path class="d" d="M567,67.77a5.47,5.47,0,0,1-1.22,3.79,5.13,5.13,0,0,1-6.93,0,5.5,5.5,0,0,1-1.21-3.82,5.42,5.42,0,0,1,1.22-3.8,4.5,4.5,0,0,1,3.48-1.33A4.41,4.41,0,0,1,565.75,64,5.46,5.46,0,0,1,567,67.77Zm-7.63,0a4.48,4.48,0,0,0,.75,2.8,3,3,0,0,0,4.41,0,5.67,5.67,0,0,0,0-5.6,2.6,2.6,0,0,0-2.19-1,2.65,2.65,0,0,0-2.22,1A4.44,4.44,0,0,0,559.34,67.77Z"/><path class="d" d="M572,69.67v-1.3h5.88v1.3H572Z"/><path class="d" d="M589.46,72.78h-6.77V71.57L585.26,69a21.91,21.91,0,0,0,1.51-1.66,4,4,0,0,0,.54-0.92,2.49,2.49,0,0,0,.17-0.92,1.41,1.41,0,0,0-.41-1.07A1.56,1.56,0,0,0,586,64a3,3,0,0,0-1.11.21,5.19,5.19,0,0,0-1.24.77l-0.87-1.06a5.59,5.59,0,0,1,1.62-1,4.74,4.74,0,0,1,1.67-.29,3.3,3.3,0,0,1,2.24.73,2.46,2.46,0,0,1,.84,2,3.43,3.43,0,0,1-.24,1.29,5.2,5.2,0,0,1-.75,1.25,17,17,0,0,1-1.67,1.75l-1.74,1.68v0.07h4.74v1.42Z"/><path class="d" d="M597.45,72.78h-6.77V71.57L593.25,69a21.91,21.91,0,0,0,1.51-1.66,4,4,0,0,0,.54-0.92,2.49,2.49,0,0,0,.17-0.92,1.41,1.41,0,0,0-.41-1.07,1.56,1.56,0,0,0-1.12-.39,3,3,0,0,0-1.11.21,5.19,5.19,0,0,0-1.24.77l-0.87-1.06a5.59,5.59,0,0,1,1.62-1,4.74,4.74,0,0,1,1.67-.29,3.3,3.3,0,0,1,2.24.73,2.46,2.46,0,0,1,.84,2,3.43,3.43,0,0,1-.24,1.29,5.2,5.2,0,0,1-.75,1.25,17,17,0,0,1-1.67,1.75L592.7,71.3v0.07h4.74v1.42Z"/><path class="d" d="M603,65.77a4.06,4.06,0,0,1-.56,2.36,1.91,1.91,0,0,1-1.66.79,1.85,1.85,0,0,1-1.61-.82,4.05,4.05,0,0,1-.57-2.33q0-3.12,2.18-3.12a1.9,1.9,0,0,1,1.65.81A3.94,3.94,0,0,1,603,65.77Zm-3.08,0a4.34,4.34,0,0,0,.2,1.52,0.68,0.68,0,0,0,.65.5q0.9,0,.9-2t-0.9-2a0.68,0.68,0,0,0-.65.5A4.34,4.34,0,0,0,600,65.78Zm7.55-3-5.54,10h-1.33l5.54-10h1.33Zm2,7a4,4,0,0,1-.57,2.36,1.91,1.91,0,0,1-1.65.79,1.86,1.86,0,0,1-1.61-.81,4,4,0,0,1-.57-2.33q0-3.12,2.19-3.12a1.91,1.91,0,0,1,1.64.81A3.91,3.91,0,0,1,609.54,69.78Zm-3.08,0a4.37,4.37,0,0,0,.2,1.52,0.68,0.68,0,0,0,.65.51q0.9,0,.9-2t-0.9-2a0.68,0.68,0,0,0-.65.49A4.25,4.25,0,0,0,606.47,69.78Z"/><path class="d" d="M266.75,292l-8-19.78h-0.12q0.12,1.82.12,3.72V292h-1.44V270.55h2.31l7.59,18.84h0.09l7.59-18.84h2.26V292h-1.51V275.73q0-1.7.18-3.52h-0.12l-8,19.75h-1Z"/><path class="d" d="M294.92,292h-11.7V270.55h11.7v1.38H284.71V280h9.64v1.38h-9.64v9.18h10.21V292Z"/><path class="d" d="M316,281.05q0,5.39-2.83,8.15T304.89,292h-5.13V270.55h5.79q5.13,0,7.8,2.68T316,281.05Zm-1.63.06q0-4.6-2.34-6.92t-6.86-2.32h-3.94v18.78h3.54Q314.4,290.65,314.4,281.11Z"/><path class="d" d="M320.95,292V270.55h1.49V292h-1.49Z"/><path class="d" d="M338.82,284.4h-8.7l-3,7.56h-1.66l8.61-21.5h1l8.44,21.5h-1.68Zm-8.16-1.35h7.66l-2.92-7.72q-0.37-.91-0.88-2.52a23.49,23.49,0,0,1-.86,2.55Z"/><path class="d" d="M359.88,292h-1.51V272h-7v-1.41h15.42V272h-7v20Z"/><path class="d" d="M374.94,282.27l6.27-11.72h1.61l-7.13,13.14V292h-1.54V283.8L367,270.55h1.71Z"/><path class="d" d="M398.75,276.7a5.69,5.69,0,0,1-2.11,4.76,9.48,9.48,0,0,1-6,1.66h-3.31V292h-1.49V270.55h5.24Q398.75,270.55,398.75,276.7Zm-11.4,5.13h2.94q3.62,0,5.23-1.19a4.5,4.5,0,0,0,1.61-3.87,4.37,4.37,0,0,0-1.52-3.67,7.62,7.62,0,0,0-4.72-1.19h-3.54v9.93Z"/><path class="d" d="M415.11,292H403.4V270.55h11.7v1.38H404.9V280h9.64v1.38H404.9v9.18h10.21V292Z"/><path class="e" d="M335.62,119.46A165.14,165.14,0,0,1,497.68,252.92l9.11-1.8c-16.19-83.35-86.5-141.37-171.5-141.37v9.71h0.32Z"/><path class="f" d="M507,251.12l-9.25,1.8a165.15,165.15,0,0,1-56.05,158l6.15,7.33C498.09,376.12,519.53,315.53,507,251.12Z"/><path class="g" d="M335.8,449.46A165,165,0,0,1,293,125.08l-2.51-9.38c-26.08,7-46.35,17.55-67,34.92-73.86,62-83.49,172.22-21.52,246.14A174.47,174.47,0,0,0,447.87,418.3L441.72,411A164.32,164.32,0,0,1,335.8,449.46Z"/><path class="h" d="M335.3,119.47v-9.72a174.54,174.54,0,0,0-45.13,6l2.5,9.45A163.55,163.55,0,0,1,335.3,119.47Z"/><line class="i" x1="91.43" y1="414.32" x2="169.26" y2="372.24"/><line class="i" x1="514.47" y1="72.8" x2="456.19" y2="138.12"/><line class="i" x1="513.7" y1="348.44" x2="594.8" y2="383.46"/><line class="i" x1="335.8" y1="87.3" x2="335.8" y2="122.3"/><line class="i" x1="530.65" y1="246.96" x2="496.76" y2="253.38"/><line class="i" x1="440.63" y1="409.96" x2="461.75" y2="436.66"/><line class="i" x1="310.74" y1="98.33" x2="298.33" y2="9.65"/><line class="i" x1="283.97" y1="94.46" x2="292.69" y2="125.52"/></svg>