<svg xmlns="http://www.w3.org/2000/svg" viewBox="0 0 56 39"><defs><style>.a{fill:#fff;}</style></defs><title>murray-logo</title><path class="a" d="M6.1 39h1.36v-39h-1.36v39zm-6.1-20.39v20.39h1.36v-39h-1.36v18.61zm3 20.39h1.39v-39h-1.39v39zm48.58 0h1.42v-39h-1.39v39zm3-39v39h1.42v-39h-1.36zm-6.1 39h1.42v-39h-1.36v39zm-39.35-39v39h1.36v-25.68l17.7 11.84 17.29-11.84v25.68h1.36v-39l-18.65 12.89zm36.38 11.7l-17.28 11.95-17.71-11.95v-2l17.7 11.91 17.29-11.94v2zm0-3.68l-17.28 11.98-17.71-12v-2.08l17.71 12.08 17.28-12.08v2.08zm0-5.82v2.1l-17.28 12.17-17.71-12.16v-2.1l17.71 12.19z"/></svg>