<svg xmlns="http://www.w3.org/2000/svg" viewBox="0 0 92.8 89.52"><defs><style>.a{fill:#fff;}</style></defs><title>murray-logo-2</title><polygon class="a" points="22.95 41.18 23.66 41.18 24.4 41.18 24.4 0.04 22.95 0.04 22.95 41.18"/><polygon class="a" points="16.48 41.18 17.92 41.18 17.92 0.04 16.48 0.04 16.48 19.65 16.48 41.18"/><polygon class="a" points="19.7 41.18 20.36 41.18 21.14 41.18 21.14 0.04 19.7 0.04 19.7 41.18"/><polygon class="a" points="71.28 41.18 71.94 41.18 72.72 41.18 72.72 0.04 71.28 0.04 71.28 41.18"/><polygon class="a" points="74.5 0.04 74.5 41.18 75.2 41.18 75.94 41.18 75.94 0.04 74.5 0.04"/><polygon class="a" points="68.02 41.18 68.69 41.18 69.46 41.18 69.46 0.04 68.02 0.04 68.02 41.18"/><path class="a" d="M26.17,0V41.18h1.44V14.06l18.8,12.51L64.76,14.06V41.14h1.44V0L46.41,13.62ZM64.8,8.47L46.45,21.16,27.65,8.47V6.25L46.45,19,64.8,6.25V8.47ZM46.45,25L27.65,12.36V10.21l18.8,12.58L64.8,10.21v2.15ZM64.8,2.33V4.55L46.45,17.39,27.65,4.55V2.33l18.8,12.88Z"/><path class="a" d="M6.88,67.49H6.8L2.42,60.93v10H0v-14H2.62l4.26,6.62,4.26-6.62h2.62v14H11.3v-10Z"/><path class="a" d="M30.39,64.87c0,4.18-2.36,6.28-6,6.28s-6-2.1-6-6.16V56.93h2.46v8c0,2.6,1.34,4,3.54,4s3.52-1.32,3.52-3.9V56.93h2.46v7.94Z"/><path class="a" d="M44,70.93L40.56,66H37.48v4.88H35v-14h6.24c3.22,0,5.2,1.7,5.2,4.44a4.19,4.19,0,0,1-3.34,4.26l3.78,5.3H44ZM41.06,59.17H37.48v4.7h3.6c1.76,0,2.88-.92,2.88-2.36S42.88,59.17,41.06,59.17Z"/><path class="a" d="M59.74,70.93L56.3,66H53.22v4.88H50.76v-14H57c3.22,0,5.2,1.7,5.2,4.44a4.19,4.19,0,0,1-3.34,4.26l3.78,5.3h-2.9ZM56.8,59.17H53.22v4.7h3.6c1.76,0,2.88-.92,2.88-2.36S58.62,59.17,56.8,59.17Z"/><path class="a" d="M79.06,70.93h-2.6L75,67.55H68.42L67,70.93H64.46l6.16-14.1H72.9ZM71.72,59.77l-2.4,5.6h4.82Z"/><path class="a" d="M87.24,70.93H84.76V65.41L79.2,56.93h2.9L86,63.13l4-6.2H92.8l-5.56,8.42v5.58Z"/><path class="a" d="M15.1,89.52a4.71,4.71,0,0,1,0-9.41,4.74,4.74,0,0,1,3.55,1.44l-0.7.75a4,4,0,0,0-2.86-1.25,3.77,3.77,0,0,0,0,7.51,4,4,0,0,0,2.94-1.31l0.68,0.66A4.74,4.74,0,0,1,15.1,89.52Z"/><path class="a" d="M27.5,89.37l-2.64-3.54h-2.6v3.54h-1v-9.1h3.91c2,0,3.29,1.08,3.29,2.72A2.67,2.67,0,0,1,26,85.65l2.79,3.72H27.5Zm-2.43-8.15H22.26v3.69h2.79c1.37,0,2.34-.7,2.34-1.89S26.54,81.22,25.07,81.22Z"/><path class="a" d="M37.93,81.2H32.38v3.11h5v0.94h-5v3.18H38v0.94H31.35v-9.1h6.58V81.2Z"/><path class="a" d="M49.42,89.37H48.31L47.25,87h-5l-1.08,2.41H40.16l4.15-9.17h1Zm-4.64-8L42.7,86h4.15Z"/><path class="a" d="M54.07,89.37H53V81.22H50V80.27h7.15v0.95H54.07v8.15Z"/><path class="a" d="M60.68,80.27v9.1h-1v-9.1h1Z"/><path class="a" d="M70.75,80.27h1.1l-3.91,9.17H67l-3.91-9.17h1.14l3.24,7.84Z"/><path class="a" d="M80.86,81.2H75.31v3.11h5v0.94h-5v3.18h5.62v0.94H74.28v-9.1h6.58V81.2Z"/></svg>