<svg id="Layer_1" data-name="Layer 1" xmlns="http://www.w3.org/2000/svg" xmlns:xlink="http://www.w3.org/1999/xlink" viewBox="0 0 656 679"><defs><style>.cls-1{opacity:0.4;}.cls-10,.cls-14,.cls-2,.cls-3,.cls-7,.cls-8,.cls-9{fill:none;stroke-miterlimit:10;}.cls-2,.cls-7,.cls-9{stroke-width:0.96px;stroke-dasharray:3.9 3.9;}.cls-2{stroke:url(#linear-gradient);}.cls-3{stroke:url(#linear-gradient-2);}.cls-16,.cls-19,.cls-20,.cls-21,.cls-4,.cls-6{fill:#fff;}.cls-5{fill:url(#linear-gradient-3);}.cls-6{opacity:0.34;}.cls-11,.cls-16,.cls-17,.cls-18,.cls-19,.cls-20,.cls-21,.cls-6{isolation:isolate;}.cls-7{stroke:url(#linear-gradient-4);}.cls-8{stroke:url(#linear-gradient-5);}.cls-9{stroke:url(#linear-gradient-6);}.cls-10{stroke:url(#linear-gradient-7);}.cls-11,.cls-12{fill:#e23f96;}.cls-11{opacity:0.29;}.cls-13{fill:url(#linear-gradient-8);}.cls-14{stroke:#fff;}.cls-15{fill:#104c60;}.cls-16{font-size:16px;}.cls-16,.cls-17,.cls-18,.cls-19,.cls-20{font-family:OpenSans-Bold, Open Sans;font-weight:700;}.cls-17,.cls-19{font-size:30px;}.cls-17{fill:#015873;}.cls-18{font-size:18px;fill:#014b62;}.cls-20{font-size:44px;}.cls-21{font-size:21px;font-family:OpenSans, Open Sans;}</style><linearGradient id="linear-gradient" x1="147.5" y1="678.93" x2="147.5" y2="470.75" gradientTransform="matrix(1, 0, 0, -1, 0, 678.93)" gradientUnits="userSpaceOnUse"><stop offset="0" stop-color="#135972"/><stop offset="1" stop-color="#e6f1f3"/></linearGradient><linearGradient id="linear-gradient-2" x1="147.5" y1="451.98" x2="147.5" y2="449.98" xlink:href="#linear-gradient"/><linearGradient id="linear-gradient-3" x1="163.5" y1="127.93" x2="163.5" y2="227.93" gradientTransform="matrix(1, 0, 0, -1, 0, 678.93)" gradientUnits="userSpaceOnUse"><stop offset="0" stop-color="#e6f1f3"/><stop offset="1" stop-color="#b8cfd6"/></linearGradient><linearGradient id="linear-gradient-4" x1="508.5" y1="678.93" x2="508.5" y2="470.75" xlink:href="#linear-gradient"/><linearGradient id="linear-gradient-5" x1="508.5" y1="451.98" x2="508.5" y2="449.98" xlink:href="#linear-gradient"/><linearGradient id="linear-gradient-6" x1="329.5" y1="678.93" x2="329.5" y2="470.75" xlink:href="#linear-gradient"/><linearGradient id="linear-gradient-7" x1="329.5" y1="451.98" x2="329.5" y2="449.98" xlink:href="#linear-gradient"/><linearGradient id="linear-gradient-8" x1="492.25" y1="127.93" x2="492.25" y2="227.93" gradientTransform="matrix(1, 0, 0, -1, 0, 678.93)" gradientUnits="userSpaceOnUse"><stop offset="0" stop-color="#d03392"/><stop offset="1" stop-color="#a73d91"/></linearGradient></defs><title>total-followers-small</title><g class="cls-1"><line class="cls-2" x1="147.5" x2="147.5" y2="208.18"/><line class="cls-3" x1="147.5" y1="226.95" x2="147.5" y2="228.95"/></g><path class="cls-4" d="M0,551H327V679H0Z" transform="translate(0 0)"/><path class="cls-5" d="M147,451H327V551H0Z" transform="translate(0 0)"/><path class="cls-6" d="M147,210l90-50,90,50V434.74H147Z" transform="translate(0 0)"/><path class="cls-4" d="M147,226.21l90-50,90,50V451H147Z" transform="translate(0 0)"/><g class="cls-1"><line class="cls-7" x1="508.5" x2="508.5" y2="208.18"/><line class="cls-8" x1="508.5" y1="226.95" x2="508.5" y2="228.95"/></g><g class="cls-1"><line class="cls-9" x1="329.5" x2="329.5" y2="208.18"/><line class="cls-10" x1="329.5" y1="226.95" x2="329.5" y2="228.95"/></g><path class="cls-11" d="M329,125l90-50,90,50V434.74H329Z" transform="translate(0 0)"/><path class="cls-12" d="M329,141l90-50,90,50V451H329Z" transform="translate(0 0)"/><path class="cls-12" d="M329,551H656V679H329Z" transform="translate(0 0)"/><path class="cls-13" d="M508.72,451H329V551H655.5Z" transform="translate(0 0)"/><path class="cls-4" d="M330.27,20.88a16.5,16.5,0,1,1-16.5,16.5h0A16.5,16.5,0,0,1,330.27,20.88Z" transform="translate(0 0)"/><path class="cls-14" d="M209.77,16h54a21,21,0,0,1,0,42h-54a21,21,0,0,1,0-42Z" transform="translate(0 0)"/><path class="cls-14" d="M391,16h54a21,21,0,0,1,0,42H391a21,21,0,0,1,0-42Z" transform="translate(0 0)"/><path class="cls-15" d="M282.59,595.87h91a21,21,0,0,1,0,42h-91a21,21,0,1,1,0-42Z" transform="translate(0 0)"/><text class="cls-16" transform="translate(298.72 623.23)">TOTALS</text><text class="cls-17" transform="translate(95.42 627.17)">2,263,895</text><text class="cls-18" transform="translate(321.08 42.83)">vs</text><text class="cls-19" transform="translate(422.39 627.17)">2,559,242</text><text class="cls-19" transform="translate(397.74 277.95)">UP</text><text class="cls-20" transform="translate(342.18 319.2)">13.05%</text><text class="cls-21" transform="translate(212.8 44.6)">2015</text><text class="cls-21" transform="translate(393.25 44.6)">2016</text></svg>