<svg xmlns="http://www.w3.org/2000/svg" xmlns:xlink="http://www.w3.org/1999/xlink" viewBox="0 0 655.99 679"><defs><style>.a{opacity:0.4;}.b,.c,.g,.h,.i,.j,.n{fill:none;stroke-miterlimit:10;}.b,.g,.i{stroke-width:0.96px;stroke-dasharray:3.9 3.9;}.b{stroke:url(#a);}.c{stroke:url(#b);}.d,.f{fill:#fff;}.e{fill:url(#c);}.f{opacity:0.34;}.f,.k,.p{isolation:isolate;}.g{stroke:url(#d);}.h{stroke:url(#e);}.i{stroke:url(#f);}.j{stroke:url(#g);}.k,.l{fill:#e23f96;}.k{opacity:0.29;}.m{fill:url(#h);}.n{stroke:#fff;}.o{fill:#104c60;}.q{fill:#015873;}.r{fill:#014b62;}</style><linearGradient id="a" x1="147.49" y1="680" x2="147.49" y2="471.82" gradientTransform="matrix(1 0 0 -1 0 680)" gradientUnits="userSpaceOnUse"><stop offset="0" stop-color="#135972"/><stop offset="1" stop-color="#e6f1f3"/></linearGradient><linearGradient id="b" x1="147.49" y1="453.05" x2="147.49" y2="451.05" xlink:href="#a"/><linearGradient id="c" x1="163.5" y1="129" x2="163.5" y2="229" gradientTransform="matrix(1 0 0 -1 0 680)" gradientUnits="userSpaceOnUse"><stop offset="0" stop-color="#e6f1f3"/><stop offset="1" stop-color="#b8cfd6"/></linearGradient><linearGradient id="d" x1="508.49" y1="680" x2="508.49" y2="471.82" xlink:href="#a"/><linearGradient id="e" x1="508.49" y1="453.05" x2="508.49" y2="451.05" xlink:href="#a"/><linearGradient id="f" x1="329.49" y1="680" x2="329.49" y2="471.82" xlink:href="#a"/><linearGradient id="g" x1="329.49" y1="453.05" x2="329.49" y2="451.05" xlink:href="#a"/><linearGradient id="h" x1="492.24" y1="129" x2="492.24" y2="229" gradientTransform="matrix(1 0 0 -1 0 680)" gradientUnits="userSpaceOnUse"><stop offset="0" stop-color="#d03392"/><stop offset="1" stop-color="#a73d91"/></linearGradient></defs><title>total-followers-small</title><g class="a"><path class="b" d="M147.49 0v208.18"/><path class="c" d="M147.49 226.95v2"/></g><path class="d" d="M0 551h327v128h-327v-128z"/><path class="e" d="M147 451h180v100h-327z"/><path class="f" d="M147 210l90-50 90 50v224.74h-180v-224.74z"/><path class="d" d="M147 226.21l90-50 90 50v224.79h-180v-224.79z"/><g class="a"><path class="g" d="M508.49 0v208.18"/><path class="h" d="M508.49 226.95v2"/></g><g class="a"><path class="i" d="M329.49 0v208.18"/><path class="j" d="M329.49 226.95v2"/></g><path class="k" d="M329 125l90-50 90 50v309.74h-180v-309.74z"/><path class="l" d="M329 141l90-50 90 50v310h-180v-310zM329 551h327v128h-327v-128z"/><path class="m" d="M508.72 451h-179.72v100h326.5z"/><path class="d" d="M330.27 20.88a16.5 16.5 0 1 1-16.5 16.5 16.5 16.5 0 0 1 16.5-16.5z"/><path class="n" d="M209.77 16h54a21 21 0 0 1 0 42h-54a21 21 0 0 1 0-42zM391 16h54a21 21 0 0 1 0 42h-54a21 21 0 0 1 0-42z"/><path class="o" d="M282.59 595.87h91a21 21 0 0 1 0 42h-91a21 21 0 0 1 0-42z"/><g class="p"><path class="d" d="M304.55 623.23h-2.42v-9.41h-3.13v-2h8.63v2h-3.1v9.41zM319.78 617.5a6.2 6.2 0 0 1-1.41 4.36 6.1 6.1 0 0 1-8.06 0 6.22 6.22 0 0 1-1.41-4.37 6.13 6.13 0 0 1 1.41-4.36 5.27 5.27 0 0 1 4-1.5 5.2 5.2 0 0 1 4 1.52 6.21 6.21 0 0 1 1.47 4.35zm-8.34 0a4.77 4.77 0 0 0 .73 2.88 2.55 2.55 0 0 0 2.17 1q2.9 0 2.9-3.85t-2.88-3.86a2.56 2.56 0 0 0-2.18 1 4.75 4.75 0 0 0-.74 2.83zM326.55 623.23h-2.42v-9.41h-3.13v-2h8.63v2h-3.1v9.41zM338.41 623.23l-.83-2.72h-4.16l-.83 2.72h-2.59l4-11.47h3l4 11.47h-2.61zm-1.41-4.75q-1.15-3.7-1.29-4.18c-.1-.32-.17-.58-.21-.77q-.26 1-1.48 4.95h3zM342.45 623.23v-11.42h2.42v9.42h4.63v2h-7.05zM358.23 620.06a3 3 0 0 1-1.11 2.44 4.84 4.84 0 0 1-3.1.89 7.29 7.29 0 0 1-3.23-.69v-2.25a13.3 13.3 0 0 0 2 .73 5.78 5.78 0 0 0 1.46.21 2.08 2.08 0 0 0 1.22-.3 1 1 0 0 0 .43-.91 1 1 0 0 0-.19-.6 2.05 2.05 0 0 0-.55-.5 14 14 0 0 0-1.48-.77 7.05 7.05 0 0 1-1.57-.95 3.55 3.55 0 0 1-.84-1.05 3 3 0 0 1-.31-1.41 3 3 0 0 1 1-2.38 4.27 4.27 0 0 1 2.84-.87 6.71 6.71 0 0 1 1.7.21 11.62 11.62 0 0 1 1.69.59l-.78 1.88a11.24 11.24 0 0 0-1.51-.52 4.84 4.84 0 0 0-1.18-.15 1.55 1.55 0 0 0-1.05.32 1.05 1.05 0 0 0-.37.84 1 1 0 0 0 .15.56 1.63 1.63 0 0 0 .47.46 14.81 14.81 0 0 0 1.54.8 6.1 6.1 0 0 1 2.2 1.54 3 3 0 0 1 .57 1.88z"/></g><g class="p"><path class="q" d="M107.81 627.17h-4.53v-14.39l.07-2.23q-1.13 1.13-1.57 1.48l-2.46 2-2.18-2.72 6.9-5.49h3.72v21.42zM119.27 624a45.4 45.4 0 0 1-2.58 7h-3.22q1-3.9 1.48-7.35h4.05zM137.33 614.89q0 6.33-2.67 9.45t-8.07 3.12a15.16 15.16 0 0 1-2.89-.21v-3.63a10.59 10.59 0 0 0 2.58.31 9 9 0 0 0 3.74-.67 4.71 4.71 0 0 0 2.24-2.09 9.23 9.23 0 0 0 .89-3.93h-.15a5 5 0 0 1-2 1.93 6.2 6.2 0 0 1-2.78.56 5.62 5.62 0 0 1-4.41-1.79 7.2 7.2 0 0 1-1.61-5 7.45 7.45 0 0 1 2-5.44 7.11 7.11 0 0 1 5.32-2 7.67 7.67 0 0 1 4.15 1.11 7.15 7.15 0 0 1 2.73 3.23 12.24 12.24 0 0 1 .93 5.05zm-7.75-5.76a2.68 2.68 0 0 0-2.2 1 4.3 4.3 0 0 0-.79 2.78 3.86 3.86 0 0 0 .72 2.46 2.61 2.61 0 0 0 2.18.91 3.36 3.36 0 0 0 2.36-.9 2.74 2.74 0 0 0 1-2.07 4.71 4.71 0 0 0-.92-2.94 2.82 2.82 0 0 0-2.35-1.23zM141.69 627.17l8-17.58h-10.52v-3.81h15.37v2.84l-8.1 18.54h-4.75zM170.83 610.54a5 5 0 0 1-1.22 3.41 6.3 6.3 0 0 1-3.41 1.93v.12a6.83 6.83 0 0 1 3.93 1.57 4.41 4.41 0 0 1 1.33 3.38 5.72 5.72 0 0 1-2.24 4.81 10.33 10.33 0 0 1-6.4 1.72 15.54 15.54 0 0 1-6.18-1.16v-3.85a14 14 0 0 0 2.74 1 11.53 11.53 0 0 0 3 .4 5.75 5.75 0 0 0 3.31-.76 2.8 2.8 0 0 0 1.07-2.45 2.21 2.21 0 0 0-1.23-2.14 9.1 9.1 0 0 0-3.93-.63h-1.63v-3.47h1.66a7.68 7.68 0 0 0 3.64-.65 2.35 2.35 0 0 0 1.15-2.23q0-2.43-3-2.43a7 7 0 0 0-2.15.35 10.48 10.48 0 0 0-2.42 1.22l-2.09-3.12a11.64 11.64 0 0 1 7-2.11 9 9 0 0 1 5.25 1.35 4.32 4.32 0 0 1 1.82 3.74zM179.34 624a45.4 45.4 0 0 1-2.58 7h-3.22q1-3.9 1.48-7.35h4.1zM196.66 610.54a5 5 0 0 1-1.22 3.41 6.3 6.3 0 0 1-3.41 1.93v.12a6.83 6.83 0 0 1 3.93 1.57 4.41 4.41 0 0 1 1.33 3.38 5.72 5.72 0 0 1-2.24 4.81 10.33 10.33 0 0 1-6.4 1.72 15.54 15.54 0 0 1-6.18-1.16v-3.85a14 14 0 0 0 2.74 1 11.53 11.53 0 0 0 3 .4 5.75 5.75 0 0 0 3.31-.76 2.8 2.8 0 0 0 1.07-2.45 2.21 2.21 0 0 0-1.23-2.14 9.1 9.1 0 0 0-3.93-.63h-1.63v-3.47h1.66a7.68 7.68 0 0 0 3.64-.65 2.35 2.35 0 0 0 1.15-2.23q0-2.43-3-2.43a7 7 0 0 0-2.15.35 10.48 10.48 0 0 0-2.42 1.22l-2.09-3.12a11.64 11.64 0 0 1 7-2.11 9 9 0 0 1 5.25 1.35 4.32 4.32 0 0 1 1.82 3.74zM215.1 622.73h-2.58v4.44h-4.42v-4.44h-9.1v-3.15l9.39-13.83h4.17v13.46h2.58v3.52zm-7-3.52v-3.63q0-.91.07-2.64t.12-2h-.12a16.34 16.34 0 0 1-1.3 2.34l-3.93 5.93h5.16zM231.74 627.17h-15v-3.17l5.38-5.43q2.39-2.45 3.12-3.39a7.48 7.48 0 0 0 1.05-1.75 4.46 4.46 0 0 0 .32-1.67 2.43 2.43 0 0 0-.71-1.92 2.75 2.75 0 0 0-1.9-.63 5.45 5.45 0 0 0-2.42.57 12.47 12.47 0 0 0-2.45 1.63l-2.46-2.92a16.05 16.05 0 0 1 2.62-1.9 9.67 9.67 0 0 1 2.27-.86 11.69 11.69 0 0 1 2.75-.3 8.15 8.15 0 0 1 3.54.73 5.66 5.66 0 0 1 2.39 2.05 5.45 5.45 0 0 1 .85 3 7.39 7.39 0 0 1-.52 2.78 10.67 10.67 0 0 1-1.61 2.66 39.39 39.39 0 0 1-3.85 3.88l-2.75 2.59v.21h9.33v3.81z"/></g><g class="p"><path class="r" d="M324.81 42.83l-3.74-9.83h2.8l1.9 5.6a10 10 0 0 1 .4 2h.05a8.75 8.75 0 0 1 .4-2l1.89-5.6h2.8l-3.74 9.83h-2.75zM339.57 39.91a2.7 2.7 0 0 1-1 2.3 5.19 5.19 0 0 1-3.14.79 10 10 0 0 1-1.83-.14 7 7 0 0 1-1.42-.43v-2.21a9.35 9.35 0 0 0 1.68.59 6.81 6.81 0 0 0 1.65.24q1.46 0 1.46-.84a.71.71 0 0 0-.19-.51 2.81 2.81 0 0 0-.67-.45q-.47-.25-1.27-.58a7.94 7.94 0 0 1-1.67-.88 2.47 2.47 0 0 1-.77-.93 3.06 3.06 0 0 1-.24-1.29 2.34 2.34 0 0 1 1-2 5 5 0 0 1 2.88-.72 8.17 8.17 0 0 1 3.45.77l-.81 1.93q-.74-.32-1.38-.52a4.33 4.33 0 0 0-1.31-.2q-1.19 0-1.19.64a.75.75 0 0 0 .38.62 10.38 10.38 0 0 0 1.67.78 7.78 7.78 0 0 1 1.69.87 2.57 2.57 0 0 1 .79.93 2.86 2.86 0 0 1 .24 1.24z"/></g><g class="p"><path class="d" d="M438.56 627.17h-15v-3.17l5.38-5.43q2.39-2.45 3.12-3.39a7.48 7.48 0 0 0 1.05-1.75 4.46 4.46 0 0 0 .32-1.67 2.43 2.43 0 0 0-.71-1.92 2.75 2.75 0 0 0-1.9-.63 5.45 5.45 0 0 0-2.42.57 12.47 12.47 0 0 0-2.45 1.63l-2.46-2.92a16.05 16.05 0 0 1 2.62-1.9 9.67 9.67 0 0 1 2.27-.86 11.69 11.69 0 0 1 2.75-.3 8.15 8.15 0 0 1 3.54.73 5.66 5.66 0 0 1 2.39 2.05 5.45 5.45 0 0 1 .85 3 7.39 7.39 0 0 1-.52 2.78 10.67 10.67 0 0 1-1.61 2.66 39.37 39.37 0 0 1-3.84 3.88l-2.75 2.59v.21h9.33v3.81zM446.24 624a45.4 45.4 0 0 1-2.58 7h-3.22q1-3.9 1.48-7.35h4.08zM464.39 627.17h-15v-3.17l5.38-5.43q2.39-2.45 3.12-3.39a7.48 7.48 0 0 0 1.05-1.75 4.46 4.46 0 0 0 .32-1.67 2.43 2.43 0 0 0-.71-1.92 2.75 2.75 0 0 0-1.9-.63 5.45 5.45 0 0 0-2.42.57 12.47 12.47 0 0 0-2.45 1.63l-2.46-2.92a16.05 16.05 0 0 1 2.62-1.9 9.67 9.67 0 0 1 2.27-.86 11.69 11.69 0 0 1 2.75-.3 8.15 8.15 0 0 1 3.54.73 5.66 5.66 0 0 1 2.39 2.05 5.45 5.45 0 0 1 .85 3 7.39 7.39 0 0 1-.52 2.78 10.67 10.67 0 0 1-1.61 2.66 39.37 39.37 0 0 1-3.84 3.88l-2.75 2.59v.21h9.33v3.81zM466.39 618.07q0-6.36 2.69-9.46t8-3.11a14.61 14.61 0 0 1 2.87.22v3.62a11.73 11.73 0 0 0-2.58-.29 8.85 8.85 0 0 0-3.8.7 4.73 4.73 0 0 0-2.2 2.08 9.55 9.55 0 0 0-.86 3.91h.19a5 5 0 0 1 4.64-2.49 5.75 5.75 0 0 1 4.5 1.8 7.16 7.16 0 0 1 1.63 5 7.47 7.47 0 0 1-1.93 5.43 7.11 7.11 0 0 1-5.36 2 7.67 7.67 0 0 1-4.14-1.1 7.14 7.14 0 0 1-2.72-3.21 12.22 12.22 0 0 1-.93-5.1zm7.73 5.77a2.68 2.68 0 0 0 2.23-1 4.36 4.36 0 0 0 .78-2.78 3.83 3.83 0 0 0-.73-2.47 2.64 2.64 0 0 0-2.19-.9 3.36 3.36 0 0 0-2.35.89 2.74 2.74 0 0 0-1 2.08 4.71 4.71 0 0 0 .92 2.94 2.81 2.81 0 0 0 2.35 1.24zM497.8 610.54a5 5 0 0 1-1.22 3.41 6.3 6.3 0 0 1-3.41 1.93v.12a6.83 6.83 0 0 1 3.93 1.57 4.41 4.41 0 0 1 1.33 3.38 5.72 5.72 0 0 1-2.24 4.81 10.33 10.33 0 0 1-6.4 1.72 15.54 15.54 0 0 1-6.18-1.16v-3.85a14 14 0 0 0 2.74 1 11.53 11.53 0 0 0 3 .4 5.75 5.75 0 0 0 3.31-.76 2.8 2.8 0 0 0 1.07-2.45 2.21 2.21 0 0 0-1.23-2.14 9.1 9.1 0 0 0-3.93-.63h-1.67v-3.47h1.66a7.68 7.68 0 0 0 3.64-.65 2.35 2.35 0 0 0 1.15-2.23q0-2.43-3-2.43a7 7 0 0 0-2.15.35 10.48 10.48 0 0 0-2.42 1.22l-2.09-3.12a11.64 11.64 0 0 1 7-2.11 9 9 0 0 1 5.25 1.35 4.32 4.32 0 0 1 1.86 3.74zM506.31 624a45.4 45.4 0 0 1-2.58 7h-3.22q1-3.9 1.48-7.35h4.1zM516.87 605.48a8.11 8.11 0 0 1 5 1.4 4.46 4.46 0 0 1 1.88 3.77 4.93 4.93 0 0 1-.91 2.92 7.73 7.73 0 0 1-2.93 2.29 10.39 10.39 0 0 1 3.45 2.69 5 5 0 0 1 1 3.07 5.11 5.11 0 0 1-2.07 4.24 8.62 8.62 0 0 1-5.43 1.6 9.07 9.07 0 0 1-5.52-1.49 5 5 0 0 1-2-4.23 5.61 5.61 0 0 1 1-3.25 8.09 8.09 0 0 1 3.13-2.5 8 8 0 0 1-2.64-2.48 5.43 5.43 0 0 1-.81-2.89 4.43 4.43 0 0 1 1.9-3.72 8.09 8.09 0 0 1 4.95-1.42zm-3.34 16a2.37 2.37 0 0 0 .88 2 4.6 4.6 0 0 0 4.92 0 2.41 2.41 0 0 0 .83-1.91 2.62 2.62 0 0 0-.83-1.84 10.66 10.66 0 0 0-2.69-1.82q-3.11 1.36-3.11 3.56zm3.31-12.69a2.82 2.82 0 0 0-1.87.59 2 2 0 0 0-.71 1.59 2.43 2.43 0 0 0 .56 1.57 6.19 6.19 0 0 0 2 1.43 5.72 5.72 0 0 0 2-1.38 2.5 2.5 0 0 0 .57-1.63 1.94 1.94 0 0 0-.73-1.6 2.91 2.91 0 0 0-1.82-.57zM541.5 614.89q0 6.33-2.67 9.45t-8.07 3.12a15.16 15.16 0 0 1-2.89-.21v-3.63a10.59 10.59 0 0 0 2.58.31 9 9 0 0 0 3.74-.67 4.71 4.71 0 0 0 2.24-2.09 9.23 9.23 0 0 0 .89-3.93h-.18a5 5 0 0 1-2 1.93 6.2 6.2 0 0 1-2.78.56 5.62 5.62 0 0 1-4.41-1.79 7.2 7.2 0 0 1-1.61-5 7.45 7.45 0 0 1 2-5.44 7.11 7.11 0 0 1 5.33-2 7.66 7.66 0 0 1 4.15 1.11 7.15 7.15 0 0 1 2.73 3.23 12.24 12.24 0 0 1 .95 5.05zm-7.75-5.76a2.68 2.68 0 0 0-2.2 1 4.3 4.3 0 0 0-.79 2.78 3.86 3.86 0 0 0 .72 2.46 2.61 2.61 0 0 0 2.18.91 3.36 3.36 0 0 0 2.36-.9 2.74 2.74 0 0 0 1-2.07 4.71 4.71 0 0 0-.92-2.94 2.82 2.82 0 0 0-2.35-1.23zM551.53 613.49a6.89 6.89 0 0 1 4.94 1.74 6.27 6.27 0 0 1 1.84 4.78 6.94 6.94 0 0 1-2.21 5.52 9.32 9.32 0 0 1-6.33 1.93 12.39 12.39 0 0 1-5.77-1.16v-3.91a13 13 0 0 0 5.61 1.39q4.15 0 4.15-3.4 0-3.24-4.29-3.24a10.55 10.55 0 0 0-1.71.15 12.37 12.37 0 0 0-1.52.33l-1.8-1 .81-10.91h11.62v3.84h-7.67l-.4 4.2.51-.1a10.08 10.08 0 0 1 2.22-.16z"/></g><g class="p"><path class="d" d="M417.87 256.53v13.86a8 8 0 0 1-1.06 4.16 6.91 6.91 0 0 1-3.07 2.74 11 11 0 0 1-4.75 1 9.08 9.08 0 0 1-6.42-2.12 7.51 7.51 0 0 1-2.29-5.79v-13.8h4.53v13.11a5.49 5.49 0 0 0 1 3.63 4.14 4.14 0 0 0 3.3 1.16 4.05 4.05 0 0 0 3.23-1.16 5.52 5.52 0 0 0 1-3.66v-13.13h4.53zM437.91 263.21a6.55 6.55 0 0 1-2.16 5.29 9.24 9.24 0 0 1-6.15 1.83h-1.95v7.67h-4.54v-21.47h6.89a9.1 9.1 0 0 1 5.93 1.68 6.11 6.11 0 0 1 1.98 5zm-10.25 3.4h1.49a5 5 0 0 0 3.13-.83 2.89 2.89 0 0 0 1-2.41 3 3 0 0 0-.87-2.36 4.09 4.09 0 0 0-2.73-.76h-2.07v6.36z"/></g><g class="p"><path class="d" d="M369.55 323.19h-7.24v-19.83l.07-3.26.12-3.56q-1.8 1.8-2.51 2.37l-3.99 3.16-3.49-4.36 11-8.79h6v34.27zM402.85 303.55q0 10.13-4.27 15.12t-12.91 5a24.25 24.25 0 0 1-4.62-.33v-5.81a17 17 0 0 0 4.13.49 14.49 14.49 0 0 0 6-1.07 7.54 7.54 0 0 0 3.59-3.35 14.76 14.76 0 0 0 1.43-6.29h-.28a8 8 0 0 1-3.14 3.09 9.91 9.91 0 0 1-4.45.89 9 9 0 0 1-7.05-2.87q-2.58-2.87-2.58-8 0-5.51 3.13-8.71a11.37 11.37 0 0 1 8.52-3.2 12.27 12.27 0 0 1 6.64 1.78 11.43 11.43 0 0 1 4.37 5.17 19.57 19.57 0 0 1 1.49 8.09zm-12.4-9.21a4.29 4.29 0 0 0-3.52 1.55 6.87 6.87 0 0 0-1.27 4.45 6.18 6.18 0 0 0 1.15 3.94 4.18 4.18 0 0 0 3.49 1.45 5.38 5.38 0 0 0 3.77-1.44 4.39 4.39 0 0 0 1.57-3.32 7.54 7.54 0 0 0-1.46-4.71 4.51 4.51 0 0 0-3.73-1.92zM407.26 319.84a3.93 3.93 0 0 1 1.05-3 4.28 4.28 0 0 1 3.07-1 4.16 4.16 0 0 1 3 1 4.55 4.55 0 0 1 0 5.87 4.08 4.08 0 0 1-3 1.07 4.2 4.2 0 0 1-3-1 3.9 3.9 0 0 1-1.12-2.94zM432.6 301.3a11 11 0 0 1 7.91 2.79 10 10 0 0 1 2.94 7.64q0 5.74-3.54 8.84t-10.12 3.09a19.83 19.83 0 0 1-9.23-1.85v-6.26a20.82 20.82 0 0 0 9 2.23q6.63 0 6.63-5.44 0-5.18-6.87-5.18a17.05 17.05 0 0 0-2.74.25 20.06 20.06 0 0 0-2.44.53l-2.88-1.55 1.29-17.46h18.55v6.14h-12.23l-.63 6.73.82-.16a16.13 16.13 0 0 1 3.54-.34zM463.37 299.14q0 5.39-2.09 8.1a7.25 7.25 0 0 1-6.12 2.71 7.06 7.06 0 0 1-6-2.78q-2.11-2.78-2.11-8 0-10.71 8.09-10.71a7.19 7.19 0 0 1 6.08 2.78q2.15 2.76 2.15 7.9zm-10.38 0a14 14 0 0 0 .53 4.44 1.82 1.82 0 0 0 1.7 1.46q2.25 0 2.25-5.91t-2.25-5.86a1.81 1.81 0 0 0-1.7 1.44 13.74 13.74 0 0 0-.52 4.48zm26.51-10.27l-19 34.27h-5.62l19-34.27h5.63zm7.88 23.91q0 5.37-2.09 8.07a7.25 7.25 0 0 1-6.12 2.71 7.06 7.06 0 0 1-6-2.78q-2.11-2.78-2.11-8 0-10.71 8.09-10.71a7.19 7.19 0 0 1 6.08 2.78q2.14 2.82 2.14 7.98zm-10.38 0a14 14 0 0 0 .53 4.44 1.82 1.82 0 0 0 1.7 1.46q2.25 0 2.25-5.91t-2.27-5.77a1.81 1.81 0 0 0-1.7 1.44 13.74 13.74 0 0 0-.51 4.44z"/></g><g class="p"><path class="d" d="M223.68 44.6h-9.85v-1.47l3.95-4a29.07 29.07 0 0 0 2.38-2.6 6.65 6.65 0 0 0 .84-1.53 4.35 4.35 0 0 0 .29-1.59 2.52 2.52 0 0 0-.73-1.9 2.79 2.79 0 0 0-2-.7 5.08 5.08 0 0 0-1.77.31 7 7 0 0 0-1.86 1.12l-.93-1.12a6.91 6.91 0 0 1 4.51-1.72 4.77 4.77 0 0 1 3.31 1.08 3.72 3.72 0 0 1 1.2 2.91 5.61 5.61 0 0 1-.8 2.82 17.85 17.85 0 0 1-3 3.53l-3.22 3.2v.06h7.71v1.6zM235.77 37.08a11 11 0 0 1-1.23 5.8 4.52 4.52 0 0 1-7.43 0 10.73 10.73 0 0 1-1.26-5.76 11 11 0 0 1 1.22-5.81 4.53 4.53 0 0 1 7.43.08 10.69 10.69 0 0 1 1.27 5.69zm-8.19 0a11 11 0 0 0 .77 4.76 2.76 2.76 0 0 0 4.92 0 11.06 11.06 0 0 0 .76-4.74 11 11 0 0 0-.76-4.73 2.77 2.77 0 0 0-4.92 0 10.9 10.9 0 0 0-.77 4.71zM244.15 44.6h-1.66v-10.68q0-1.33.08-2.52l-.48.45q-.27.24-2.44 2l-.9-1.17 4-3.07h1.44v15zM260.41 41.15h-2.22v3.45h-1.63v-3.45h-7.29v-1.48l7.12-10.14h1.8v10.08h2.22v1.55zm-3.86-1.55v-5q0-1.47.1-3.31h-.08a15.52 15.52 0 0 1-.92 1.63l-4.65 6.69h5.59z"/></g><g class="p"><path class="d" d="M404.13 44.6h-9.85v-1.47l3.95-4a29.07 29.07 0 0 0 2.38-2.6 6.65 6.65 0 0 0 .86-1.52 4.35 4.35 0 0 0 .29-1.59 2.52 2.52 0 0 0-.73-1.9 2.78 2.78 0 0 0-2-.7 5.08 5.08 0 0 0-1.77.31 7.06 7.06 0 0 0-1.86 1.12l-.9-1.16a6.91 6.91 0 0 1 4.5-1.7 4.77 4.77 0 0 1 3.31 1.08 3.72 3.72 0 0 1 1.2 2.91 5.61 5.61 0 0 1-.8 2.82 17.85 17.85 0 0 1-3 3.53l-3.28 3.21v.06h7.71v1.6zM416.22 37.08a11 11 0 0 1-1.23 5.8 4.52 4.52 0 0 1-7.43 0 10.72 10.72 0 0 1-1.26-5.76 10.94 10.94 0 0 1 1.22-5.81 4.53 4.53 0 0 1 7.43.08 10.69 10.69 0 0 1 1.27 5.69zm-8.19 0a11 11 0 0 0 .77 4.76 2.76 2.76 0 0 0 4.92 0 11.06 11.06 0 0 0 .76-4.74 11 11 0 0 0-.76-4.73 2.77 2.77 0 0 0-4.92 0 10.89 10.89 0 0 0-.8 4.71zM424.6 44.6h-1.66v-10.68q0-1.33.08-2.52l-.48.45q-.27.24-2.44 2l-.9-1.17 4-3.07h1.44v15zM435 35.44a5.51 5.51 0 0 1 3.73 1.17 4 4 0 0 1 1.36 3.21 4.65 4.65 0 0 1-1.48 3.65 5.92 5.92 0 0 1-4.09 1.32 7.51 7.51 0 0 1-3.87-.81v-1.63a5.87 5.87 0 0 0 1.79.72 8.82 8.82 0 0 0 2.1.26 4.2 4.2 0 0 0 2.8-.85 3.05 3.05 0 0 0 1-2.46q0-3.14-3.85-3.14a15.4 15.4 0 0 0-2.6.3l-.89-.56.56-7h7.44v1.57h-6l-.38 4.5a11.94 11.94 0 0 1 2.38-.25z"/></g></svg>